/* XPM */
static char *ca22b8d39d074594df75fc4500d31cd6O7aQrNonnU66nGkr[] = {
/* columns rows colors chars-per-pixel */
"64 64 187 2 ",
"   c #004747",
".  c #004B4B",
"X  c #005454",
"o  c #005A5A",
"O  c #0D5454",
"+  c #195959",
"@  c #006464",
"#  c #0C6666",
"$  c #006B6B",
"%  c #0B6E6E",
"&  c #007575",
"*  c #007B7B",
"=  c #0B7D7D",
"-  c #137272",
";  c #1B7373",
":  c #1E7C7C",
">  c #247676",
",  c #2C7979",
"<  c #008383",
"1  c #0C8686",
"2  c #008B8B",
"3  c #0C8B8B",
"4  c #118E8E",
"5  c #1B8888",
"6  c #009494",
"7  c #0B9595",
"8  c #009B9B",
"9  c #0D9D9D",
"0  c #139494",
"q  c #1A9494",
"w  c #139B9B",
"e  c #1C9C9C",
"r  c #228E8E",
"t  c #249696",
"y  c #2B9292",
"u  c #239C9C",
"i  c #2E9B9B",
"p  c #339C9C",
"a  c #399D9D",
"s  c #01A4A4",
"d  c #0BA4A4",
"f  c #05A9A9",
"g  c #0FACAC",
"h  c #0DACAC",
"j  c #0BABAB",
"k  c #12A0A0",
"l  c #16A3A3",
"z  c #15A2A2",
"x  c #14A4A4",
"c  c #1DA0A0",
"v  c #1DA3A3",
"b  c #10ADAD",
"n  c #10ACAC",
"m  c #12ADAD",
"M  c #13AEAE",
"N  c #12AEAE",
"B  c #14ADAD",
"V  c #14AEAE",
"C  c #15AEAE",
"Z  c #15AFAF",
"A  c #17AFAF",
"S  c #12ADAD",
"D  c #19AFAF",
"F  c #1BAFAF",
"G  c #1AACAC",
"H  c #17B0B0",
"J  c #19B0B0",
"K  c #18B0B0",
"L  c #1AB0B0",
"P  c #1BB0B0",
"I  c #1CB1B1",
"U  c #1DB1B1",
"Y  c #1EB2B2",
"T  c #1DB2B2",
"R  c #1DB1B1",
"E  c #24A1A1",
"W  c #24A5A5",
"Q  c #25A2A2",
"!  c #2DA2A2",
"~  c #24AAAA",
"^  c #22ADAD",
"/  c #23ABAB",
"(  c #2EADAD",
")  c #3AA4A4",
"_  c #33ABAB",
"`  c #34A3A3",
"'  c #21B2B2",
"]  c #23B3B3",
"[  c #24B1B1",
"{  c #24B3B3",
"}  c #27B1B1",
"|  c #21B4B4",
" . c #22B4B4",
".. c #23B4B4",
"X. c #23B5B5",
"o. c #22B5B5",
"O. c #23B6B6",
"+. c #23B7B7",
"@. c #24B4B4",
"#. c #24B6B6",
"$. c #25B6B6",
"%. c #26B7B7",
"&. c #27B7B7",
"*. c #27B6B6",
"=. c #23B4B4",
"-. c #29B3B3",
";. c #2AB3B3",
":. c #28B7B7",
">. c #2CB5B5",
",. c #2FB6B6",
"<. c #2BB4B4",
"1. c #26B8B8",
"2. c #2AB8B8",
"3. c #2AB9B9",
"4. c #29B9B9",
"5. c #2FBABA",
"6. c #2BB9B9",
"7. c #34B3B3",
"8. c #3BB4B4",
"9. c #30BBBB",
"0. c #36B8B8",
"q. c #37BDBD",
"w. c #33BCBC",
"e. c #3EBCBC",
"r. c #3CBEBE",
"t. c #439F9F",
"y. c #42A4A4",
"u. c #4FA1A1",
"i. c #44ACAC",
"p. c #4FACAC",
"a. c #52A1A1",
"s. c #56AFAF",
"d. c #5FA8A8",
"f. c #42B4B4",
"g. c #4AB4B4",
"h. c #42BBBB",
"j. c #42BDBD",
"k. c #42BCBC",
"l. c #44BEBE",
"z. c #43BBBB",
"x. c #4ABDBD",
"c. c #5CB2B2",
"v. c #55BDBD",
"b. c #64AAAA",
"n. c #6EAFAF",
"m. c #65B6B6",
"M. c #62B8B8",
"N. c #69B8B8",
"B. c #73B1B1",
"V. c #7AB5B5",
"C. c #3CC1C1",
"Z. c #43C1C1",
"A. c #4CC3C3",
"S. c #50C1C1",
"D. c #54C5C5",
"F. c #5BC6C6",
"G. c #5FC9C9",
"H. c #63C7C7",
"J. c #6FC4C4",
"K. c #66C8C8",
"L. c #6CCACA",
"P. c #76CFCF",
"I. c #74CCCC",
"U. c #7BCECE",
"Y. c #6FD0D0",
"T. c #71D0D0",
"R. c #7ED2D2",
"E. c #80B7B7",
"W. c #84B9B9",
"Q. c #83D2D2",
"!. c #8BD5D5",
"~. c #8FD9D9",
"^. c #92D6D6",
"/. c #94DADA",
"(. c #9CDDDD",
"). c #A1DFDF",
"_. c #ACDFDF",
"`. c #A4E1E1",
"'. c #ACE4E4",
"]. c #B1E7E7",
"[. c #B5E9E9",
"{. c #BBEBEB",
"}. c #C3EEEE",
"|. c #C6F0F0",
" X c #CAF1F1",
".X c #D3F4F4",
"XX c #DBF7F7",
/* pixels */
"* * & & & * & * & & & * & * & & & * & & & * * & & & * & & & * * & * & * & & * & & & * * & * & * & & & * & * & & & * * & & & * & ",
"* & * * * * * & * * * * * & & * * * * * & * & * * * * * * * * & * & * & * * * * * * * & * & * & * * & * & * * * * & & * * * & * ",
"* 3 9 < $ & * * * * & * * * * * * * * * * * * * * * * & * * * * * * * * * * * & * * * * * & * * * & * * * * * * * * 7 9 < $ * & ",
"* 0 >.*   $ * * * * * * * < * * * * * < * * < * * * * * * * * * * * * * * * * * * * * * * * * * * * * * * * * * * & e ^ $ . & * ",
"* $ $ .   @ < * * * * * * * < * * < * * * * * * < * * * * * * < * * * * * * * < * * < * * * * * * * * * < * * * * & $ @ . . * * ",
"* & o X o & * * < < * * * * * * * * * * * * * * * < < * * < * * * < < * < * * * * * * * * < * * * * * * * * * * * < & X X @ * * ",
"< < * * < < < < < < & @ < < * @ < < * @ < < * @ * < < $ * < < $ * < < @ & < < $ $ < < $ $ < < & @ < < & @ < * * < < < * * * * * ",
"2 2 < 2 2 < 2 2 2 2 2 * 2 < < & < < < * < < < * * < < & < * < * * < < & * < < * * < < * * < * < * * * * & < < < < 2 2 2 2 2 < < ",
"2 2 2 6 2 2 2 2 2 < @ o o o o o X o o X o o o o o X o o o X o o o X o o X X o X o o o X o X X o o o o o o * 2 2 < 2 6 2 2 2 2 * ",
"6 6 6 6 8 8 6 2 6 * o * < < < < < < < < < < * < < < < < < < < < < < < * < < < < < < < < 2 < < < < < < < 2 x w 2 6 6 2 7 8 6 2 2 ",
"6 6 8 < * 6 6 6 8 * @ 6 8 6 6 6 6 8 6 6 6 6 6 8 6 6 6 6 6 6 6 6 6 6 6 6 8 6 6 6 6 8 6 8 6 6 8 6 6 8 6 6 8 e.W 6 6 8 6 8 < * 6 2 ",
"6 w 0.* X * 8 6 6 * @ 6 6 6 6 6 6 8 6 6 6 6 8 8 8 8 8 6 8 8 6 8 8 8 8 8 8 8 8 6 6 6 6 6 6 6 6 6 6 8 8 8 6 h.u 6 6 2 c :.& X 6 2 ",
"8 & & X   * 8 8 8 < @ 6 8 6 8 8 8 8 8 8 8 8 8 8 8 8 s 8 8 8 s 8 8 8 8 8 s s 8 8 8 s 8 s 8 8 s 8 s 8 8 s s j.~ 8 8 2 & & . X 6 2 ",
"s 2 o . @ 6 s s f < @ 8 s s s s s s s s s s s s s s s s s s s s s s s s s s s s s s s s f s s s s s s s s j.' s s 8 < o X $ 8 2 ",
"f f 8 3 6 s f s f 2 @ s s s s s s f s s s s s s s s s s s f s s s s f s s s s s s s f s f s f f s f f f s j.' f s s s 8 2 6 s 2 ",
"f h b f j f h h f 3 @ s f s f s s f s f f s j A g j d j f h g f f h j m A A f j h j f h h h j f g f j j g h.' s s g f g h g j 6 ",
"g g j m m D g j f 3 @ d f g f f h j g f j f j j f j f j f g j f j f g f f j m j h f j f j j s g m g j m g j.-.g g j g j A m m 7 ",
"T T T U @.{ U T U 4 $ s g f h m A A A m g A H H T T D D A T D T T A T T T T g m g m g m g g H A T T H m U S.{ j m m U T U ' H 7 ",
"| x 9 7 w U | @.@.q @ g T T D U ' @.Y U U U | @.| @.@.| ' @.| @.| | | @.| ' | | | ' | @.' @.| | | @.| @.@.H.0.U U | k 9 7 l Y 7 ",
"{ e >.< o x 5.0.4.q $ T | | | @.@.| 1.1.@.4.@.:.4.@.1.+.@.1.4.4.1.@.@.5.4.@.1.| +.@.1.| +.@.1.@.4.4.5.q.r.T.r.| @./ e :.& @ U w ",
";.1 * o   q A.C.C.t % @.1.@.4.5.5.5.5.r.q.w.5.5.C.w.5.5.0.r.r.C.r.r.C.j.C.C.q.q.r.q.q.C.r.q.q.r.j.Z.r.r.Z.R.r.@.@.( = * X O ( w ",
"F.p o X $ / A.Z.Z.p % w.q.r.r.r.C.r.C.r.C.j.Z.C.Z.Z.Z.Z.C.Z.Z.Z.Z.Z.Z.Z.Z.Z.Z.j.Z.Z.A.C.Z.A.C.Z.D.Z.A.A.A./.D.C.r.A.r X X & 0.! ",
"J.F.f.x G F.K.D.G.t.- r.C.Z.Z.A.S.Z.Z.Z.Z.A.A.D.D.A.F.A.D.D.D.F.A.F.D.F.F.D.A.F.A.D.D.D.S.D.D.D.D.S.F.D.G.).L.A.A.G.D.8.x @.A.! ",
"U.U.L.L.I.L.G.K.I.a.- F.D.F.D.D.F.D.F.A.F.F.H.L.H.H.F.H.G.K.K.J.L.L.K.K.K.J.H.F.H.F.G.G.G.G.F.G.G.F.F.F.L.(.L.F.S.K.L.L.H.K.H.! ",
"^./.!.!.^.^.!.Q.Q.d.> L.L.L.L.L.L.L.L.L.I.I.I.Q.U.Q.R.I.Q.!.Q.Q.Q.Q.U.!.!.!.!.!.!.!.!.!.!.Q.!.Q.!.!.!.!.!.'.R.L.Q.T.I.I.Q.I.R.p.",
"'.'.'.'.(.'.'.`.`.n., /./././././././././.^././.(./.(././.).(.(./.(./.(.(./././././././.(./.)./././.(./.(.{./.^./.).'.'.'.`./.s.",
"].U.f.i.J.].[.[.[.V., (./.)././.(.(.(.(./.(.).).).'.`.'._.'.].'.'.'.'.'.'.[.'.).`.'.'.[.'.'.'.'.'.'.'.'.'.{._./.).'.L.g.i.U.`.s.",
"]._ @.< # ^.}.{.{.E., `.[.'.'.'.'.].'.'.'.].[.].].].[.'.].[.[.[.[.[.].[.[.[.'.].'.[.[.[.{.[.{.{.{.[.{.{.{. X[.'.'./.~ ^ * ; (.c.",
"_.5 3 @   M.|.}.|.W., '.].[.|.}.{.].[.{.{.{.}.[.[.[.[.{.{.}.}.{.|.{.{.}.}.}.}.{.[.{.{.{..X.X.X.X.X X|.}.|..X{.].{.^.1 3 X + '.N.",
"'.y.o X @ x.{.{.|.E., [.}..X.X.X X X|.|.|.}.|.}.|.{.}.}.}.}.|.}.}.}.}.}.}.}.}.}.|.}.}.{.}.}.}.}.{.}.}.}.|..X X}.}.'.y X . > {.N.",
"]./.8.v 8.~.].[.[.V., ].[.{. X X X}.}. X}.}.{.{.{.{.}.{.}.{.{.{.{.[.{.{.{.[.[.{.{.{.[.[.}.{.{.{.[.{.{.{.}.XX{.].}.[.!.-.c S.[.N.",
"`.`././.`.'.'.[.'.B.> `.[.{.{.}.{.{.{.{.{.{.[.].].[.{.[.[.[.[.].[.[.[.].].[.].[.'.[.'.'.[.].].].`.].'.[.]..X}.].]._.`./.(.`.[.m.",
"(./.(.)./.`.`.`.'.n., ).`.'.'.[.].'.'.[.'.'.'.`.`.`.`.`.`.`.).(.).(.).(.(.).(.).(.`.(.(.`.'.'.`.(.`.`.`.'.{.{.`.'././.(.`./.'.c.",
"U.!.^.Q./.!.U././.b.> !./././.).(.(.`.(.(.(.(.(././././.(././.~.^.!./.!.^./.!./.!./.!./.!./.^.!.!.^.Q./.~.}.'./.^.Q.Q.Q.Q././.c.",
"G.h.8._ g.G.L.I.I.u.- L.U.I.I.Q.Q.!.U.Q.U.U.U.I.R.U.L.U.U.I.L.I.I.I.L.I.I.L.L.L.I.L.I.L.I.I.I.I.I.I.I.I.R.[./.Q.U.H.8.7.) v.~.p.",
"x.l { < @ f.D.A.D.a % D.G.F.J.L.I.L.L.J.I.L.L.K.H.F.G.G.H.K.F.D.D.D.F.F.F.F.D.F.D.F.D.D.F.F.D.G.D.F.D.D.L.'.R.F.K.x.c / * - H.) ",
"8.1 0 @   E A.A.A.i % Z.G.D.G.F.D.G.F.F.F.G.F.D.D.G.D.F.A.A.A.A.D.D.D.D.A.A.A.A.A.A.A.A.A.D.A.A.A.D.D.A.F.'.T.D.D._ 1 0 o O v.` ",
"{ 1 X   o l A.C.C.q $ r.D.A.A.A.A.A.A.A.A.D.A.A.A.D.A.A.A.A.C.Z.A.Z.Z.Z.Z.r.Z.r.Z.C.Z.r.Z.r.C.r.Z.j.Z.C.A.).Y.A.Z.7.= X   % A.Q ",
"@.U 0 < 8 | 4.4.@.q @ ' r.r.r.r.Z.C.l.r.j.Z.C.r.w.r.0.5.w.5.5.0.w.w.w.w.q.4.4.4.4.4.1.5.5.5.5.r.q.q.0.q.Z./.Y.q.w.5.-.3 < k r.u ",
"@.@.@.U | @.@.@.@.q $ G :.:.4.4.4.>.:.:.:.4.4.@.1.4.1.1.| 1.+.1.@.1.@.1.@.@.@.@.@.| | @.@.| | @.| | Y | 0.Q.A.1.4.| | +.U @.w.e ",
"| | Y Y | U | ' T 0 $ A { ' @.@.{ @.' | @.| @.@.| | @.| @.' U Y T U Y U T T T T A U D U U | ' U | ' | | 4.I.l.| | | ' ' ' ' :.0 ",
"g g h h g h h g f 3 @ G T U U U U ' T U U U U U U H U U T T m g g g m T h f f f j f j j g f m j g j g f A S.0.' T H g g j m T 7 ",
"g d s 9 s h m A h 3 @ j j j g g g g g m g j j g g h h m g g g g g h j g m j g m g j j g A g g h m j f h g A.>.m m m s d 8 d g 6 ",
"d k / < @ k h d b 3 @ x g j D D A m A g j j g A g h j g g s f j f f f f f f s s s f f f g j h h f g s f j x.>.g h s l G * $ s 7 ",
"8 3 l $   < s s f < @ s s f f h j f f f s f f f s s f s f s s s s s s s s s s s s s s s s s s s s s s s f x.' s f 6 4 w @ X 8 6 ",
"s & X   X 2 8 s s < @ 6 s 8 s s s 8 s s s 8 s s s s 8 s s 8 s s s s s s s s s s s s s 8 s 8 8 s 8 8 8 s 8 h.^ s s 8 @ X   o 8 6 ",
"8 8 * $ * 6 8 8 8 < @ 6 8 8 8 8 8 8 8 8 8 8 8 8 8 8 8 8 8 8 8 8 8 8 8 8 6 6 8 6 8 6 8 6 8 8 8 8 8 8 8 s 8 h.~ 8 8 s 6 & $ < s 2 ",
"8 8 8 6 6 6 8 8 8 * @ 6 8 8 8 8 8 8 8 8 8 8 8 8 8 8 8 8 8 8 8 6 6 6 8 6 6 6 6 6 6 6 6 6 6 6 8 6 6 6 6 6 8 h.~ 8 6 8 8 6 6 6 8 2 ",
"8 6 8 8 8 8 6 8 6 * @ 6 6 6 8 8 8 6 8 8 6 8 8 8 6 8 8 8 8 6 8 6 6 8 8 6 8 6 8 6 6 8 8 6 6 8 6 6 6 6 8 6 6 h.~ 6 6 6 8 6 8 8 6 2 ",
"6 6 6 6 6 6 6 6 8 * @ 6 6 6 6 8 6 6 6 6 6 6 6 8 6 6 6 6 6 6 6 6 6 2 6 6 2 6 6 6 6 2 6 2 6 6 6 6 6 6 2 6 6 h.W 6 8 6 8 6 6 6 6 2 ",
"6 6 6 2 2 2 2 2 2 & o 6 6 2 6 6 6 6 6 2 2 6 6 2 6 6 2 6 6 2 2 2 2 2 6 2 2 2 2 2 2 2 2 2 2 2 2 2 2 2 2 2 6 h.Q 2 2 6 6 2 6 2 6 < ",
"< 7 G < @ < < < 2 & o < 2 2 < < < 2 < 2 < 2 < < 2 < 2 < 2 < 2 2 < 2 < 2 < 2 2 < 2 < 2 < 2 < 2 < < < 2 2 2 h.u 2 2 < 7 G * $ < < ",
"* 3 / &   & < < < & o * < < * < < < < < * < < < < * < * < < < < * < * < < * < < < < * < < < < * < < < < 2 h.t < 2 * 0 v $   * * ",
"* @ o   . * < * * $ @ * * < < < < * < * < < * < * < < < < * < * * < * * * * * * * * * * < * * * * * * * < h.t * * * @ X   X * * ",
"* * @ o & * * * < $ o * * < * * * < * < * * * * < * * * * < * * * * < * < * * * * < * * * * * * * * * * < h.t * * < & @ o & * * ",
"< * * & * * * < * $ @ * < * * < * < * * * < < * * < * < * * * < < * < * * * < < * * * < < * < * * < < * 2 z.t * * * * * * * * * ",
"* * * * * * * * * & $ 6 8 8 8 8 8 8 8 8 8 8 8 8 8 8 8 8 8 8 8 8 8 8 8 8 6 8 6 8 8 8 8 8 8 8 8 8 8 8 8 v 8.g.1 * * * * * * * * * ",
"* & & * * & & * * * * 2 2 6 2 6 2 6 6 2 2 6 2 6 6 2 6 6 6 2 6 6 2 6 6 6 6 6 6 6 6 6 2 6 6 2 6 6 6 2 6 u 0 < & * & * & & * & * & ",
"& * * * & & * & & * & @ & & & @ & & & @ & & & @ $ & & o $ & & @ $ & & @ $ & & @ $ & * $ @ * & $ @ & & $ @ & * & * & * * & * & & ",
"* 3 x < $ & & & & & $ @ & & & @ & & $ @ & & & @ & & & @ & * & @ & & * @ $ * & $ $ & & $ $ & & $ @ * * & @ & & & & * 7 d * @ & * ",
"& 4 ^ &   $ * & & & & * & * & & & & & & & & & & & & & * & & & & & & & & & & & & & & & & & & & & * & & & & & & & & & e ^ $ . & & ",
"& @ @ .   @ & & & & & & & & & & & & & & & & & & & & & & & & * & & & * & * & & & & & & & * & & & & & & & & & & & & & @ o . X & & ",
"& % o X o & & & & & & $ & $ & & & & & & & & & & & & & & & & & & & & & & & & & & & & & & & & & $ & & & & & & & & & & $ X X @ & & ",
"* & & & & & & & & & & & & & & & & & & & * & * & * * & & & & * & * & & & * & * & & & & & & & & & & & & & * & & & & & & & & $ & & "
};
