/* XPM */
static char *result[] = {
/* columns rows colors chars-per-pixel */
"64 64 205 2 ",
"   c #2C1A0F",
".  c #361E0D",
"X  c #2A1D1A",
"o  c #2E1B14",
"O  c #331B13",
"+  c #3C1D12",
"@  c #341A19",
"#  c #2E201F",
"$  c #3C2313",
"%  c #38241B",
"&  c #2C2424",
"*  c #2C2A2D",
"=  c #342624",
"-  c #352827",
";  c #2D2D35",
":  c #2E313A",
">  c #34333B",
",  c #39393F",
"<  c #3C3238",
"1  c #4E1D0F",
"2  c #431E12",
"3  c #4A1D12",
"4  c #551F14",
"5  c #492A0F",
"6  c #482408",
"7  c #522C07",
"8  c #5A300D",
"9  c #4B2112",
"0  c #4E231D",
"q  c #4D291A",
"w  c #472915",
"e  c #552213",
"r  c #5A2412",
"t  c #522F13",
"y  c #5C2A1C",
"u  c #54291C",
"i  c #573212",
"p  c #5A3414",
"a  c #5D3219",
"s  c #7D290F",
"d  c #62320A",
"f  c #662F1C",
"g  c #692813",
"h  c #722B12",
"j  c #792E11",
"k  c #6C3E16",
"l  c #6C321F",
"z  c #693C19",
"x  c #633815",
"c  c #753815",
"v  c #462924",
"b  c #5D2820",
"n  c #45362B",
"m  c #4E3F3C",
"M  c #6C3822",
"N  c #733623",
"B  c #783A21",
"V  c #6F411D",
"C  c #72421A",
"Z  c #79451E",
"A  c #5C483F",
"S  c #7D4B23",
"D  c #794B29",
"F  c #61493D",
"G  c #3B3D44",
"H  c #313540",
"J  c #3E404C",
"K  c #3C4858",
"L  c #43424B",
"P  c #4A474E",
"I  c #484245",
"U  c #584D4D",
"Y  c #5F504D",
"T  c #464752",
"R  c #4B4B53",
"E  c #484A56",
"W  c #514E57",
"Q  c #4D515D",
"!  c #55565B",
"~  c #575559",
"^  c #614D44",
"/  c #6B594F",
"(  c #7E624C",
")  c #565560",
"_  c #5B5B64",
"`  c #5D5967",
"'  c #615C62",
"]  c #656469",
"[  c #6B636C",
"{  c #6B6A6D",
"}  c #656672",
"|  c #6F6D74",
" . c #6E6671",
".. c #726C73",
"X. c #7B6D7C",
"o. c #6E707D",
"O. c #767276",
"+. c #72717C",
"@. c #7C797A",
"#. c #7A737D",
"$. c #7C6A66",
"%. c #832B12",
"&. c #882D12",
"*. c #902E11",
"=. c #8B3312",
"-. c #85381A",
";. c #943314",
":. c #983A12",
">. c #A6340E",
",. c #A83813",
"<. c #B23C14",
"1. c #C83A08",
"2. c #9C4A0E",
"3. c #954810",
"4. c #A24C0F",
"5. c #B94B11",
"6. c #AC5517",
"7. c #BA5511",
"8. c #B3630E",
"9. c #BF6912",
"0. c #824E25",
"q. c #80492B",
"w. c #8A562E",
"e. c #85522A",
"r. c #9D5B27",
"t. c #885B33",
"y. c #96653B",
"u. c #A97D3C",
"i. c #C74315",
"p. c #DC4A16",
"a. c #DA5614",
"s. c #EB460E",
"d. c #FE4305",
"f. c #FE4A05",
"g. c #FE4A0C",
"h. c #FA440A",
"j. c #FE520F",
"k. c #F15B00",
"l. c #EF4D16",
"z. c #E24115",
"x. c #FA4A11",
"c. c #E75B16",
"v. c #FE5315",
"b. c #FD5C16",
"n. c #FE5B19",
"m. c #D97014",
"M. c #D36D0B",
"N. c #F86503",
"B. c #FE7D0E",
"V. c #FF720E",
"C. c #E46312",
"Z. c #E66811",
"A. c #FD6315",
"S. c #FE6C19",
"D. c #F96A11",
"F. c #FE7612",
"G. c #FF7A13",
"H. c #FF731D",
"J. c #FD7E19",
"K. c #E77C08",
"L. c #C56926",
"P. c #FE7320",
"I. c #8F6F48",
"U. c #9F7248",
"Y. c #A66E45",
"T. c #A37544",
"R. c #A0785F",
"E. c #907365",
"W. c #82777F",
"Q. c #BB863C",
"!. c #B9863C",
"~. c #EF820D",
"^. c #FE820D",
"/. c #FF8D0D",
"(. c #F98C07",
"). c #EC9102",
"_. c #FD930C",
"`. c #FE9B0A",
"'. c #F89801",
"]. c #FE8519",
"[. c #FF8B1D",
"{. c #FF8112",
"}. c #FF9D14",
"|. c #FE961D",
" X c #FF9D1A",
".X c #FF9114",
"XX c #FEA406",
"oX c #FEAE06",
"OX c #FFA50D",
"+X c #FFAA0A",
"@X c #FFB402",
"#X c #FEA312",
"$X c #FFA11C",
"%X c #FD8922",
"&X c #FE9C22",
"*X c #FF9420",
"=X c #FFA428",
"-X c #FFA926",
";X c #FFB127",
":X c #BA8C4E",
">X c #B88B59",
",X c #C38E42",
"<X c #C89347",
"1X c #7B7583",
"2X c None",
/* pixels */
"2X2X2X2X2X2X2X2X2X2X2X2X2X2X2X2X2X2X2X2X2X2X2X2X2X2X2X2X2X2X2X2X2X2X2X2X2X2X2X2X2X2X2X2X2X2X2X2X2X2X2X2X2X2X2X2X2X2X2X2X2X2X2X2X",
"2X2X2X2X2X2X2X2X2X2X2X2X2X2X2X2X2X2X2X2X2X2X2X2X2X2X2X2X2X2X2X2X2X2X2X2X2X2X2X2X2X2X2X2X2X2X2X2X2X2X2X2X2X2X2X2X2X2X2X2X2X2X2X2X",
"2X2X2X2X2X2X2X2X2X2X2X2X2X2X2X2X2X2X2X2X2X2X2X2X2X2X2X2X2X2X2X2X2X2X2X2X2X2X2X2X2X2X2X2X2X2X2X2X2X2X2X2X2X2X2X2X2X2X2X2X2X2X2X2X",
"2X2X2X2X2X2X2X2X2X2X2X2X2X2X2X2X2X2X2X2X2X2X2X2X2X2X2X2X2X2X2X2X2X2X2X2X2X2X2X2X2X2X2X2X2X2X2X2X2X2X2X2X2X2X2X2X2X2X2X2X2X2X2X2X",
"2X2X2X2X2X2X2X2X2X2X2X2X2X2X2X2X2X2X2X2X2X2X2X2X2X2X2X2X2X2X2X2X2X2X2X2X2X2X2X2X2X2X2X2X2X2X2X2X2X2X2X2X2X2X2X2X2X2X2X2X2X2X2X2X",
"2X2X2X2X2X2X2X2X2X2X2X2X2X2X2X2X2X2X2X2X2X2X2X2X2X2X2X2X2X2X2X2X2X2X2X2X2X2X2X2X2X2X2X2X2X2X2X2X2X2X2X2X2X2X2X2X2X2X2X2X2X2X2X2X",
"2X2X2X2X2X2X2X2X2X2X2X2X2X2X2X2X2X2X2X2X2X2X2X2X2X2X2X2X2X2X2X2X2X2X2X2X2X2X2X2X2X2X2X2X2X2X2X2X2X2X2X2X2X2X2X2X2X2X2X2X2X2X2X2X",
"2X2X2X2X2X2X2X2X2X2X2X2X2X2X2X2X2X2X2X2X2X2X2X2X2X2X2X2X2X2X2X2X2X2X2X2X2X2X2X2X2X2X2X2X2X2X2X2X2X2X2X2X2X2X2X2X2X2X2X2X2X2X2X2X",
"2X2X2X2X2X2X2X2X2X2X2X2X2X2X2X2X2X2X2X2X2X2X2X2X2X2X2X2X2X2X2X2X2X2X2X2X2X2X2X2X2X2X2X2X2X2X2X2X2X2X2X2X2X2X2X2X2X2X2X2X2X2X2X2X",
"2X2X2X2X2X2X2X2X2X2X2X2X2X2X2X2X2X2X2X2X2X2X2X2X2X2X2X2X2X2X2X2X2X2X2X2X2X2X2X2X2X2X2X2X2X2X2X2X2X2X2X2X2X2X2X2X2X2X2X2X2X2X2X2X",
"2X2X2X2X2X2X2X2X2X2X2X2X2X2X2X2X2X2X2X2X2X2X2X2X2X2X2X2X2X2X2X2X2X2X2X2X2X2X2X2X2X2X2X2X2X2X2X2X2X2X2X2X2X2X2X2X2X2X2X2X2X2X2X2X",
"2X2X2X2X2X2X2X2X2X2X2X2X2X2X2X2X2X2X2X2X2X2X2X2X2X2X2X2X2X2X2X2Xh.d.d.f.2X2X2X2X2X2X2X2X2X2X2X2X2X2X2X2X2X2X2X2X2X2X2X2X2X2X2X2X",
"2X2X2X2X2X2X2X2X2X2X2X2X2X2X2X2X2X2X2X2X2X2X2X2X2X2X2X2X2X2X1.d.d.f.^.d.2X2X2X2X2X2X2X2X2X2X2X2X2X2X2X2X2X2X2X2X2X2X2X2X2X2X2X2X",
"2X2X2X2X2X2X2X2X2X2X2X2X2X2X2X2X2X2X2X2X2X2X2X2X2X2X2X2X2Xg.g.g.f._._.f.>.2X2X2X2X2X2X2X2X2X2X2X2X2X2X2X2X2X2X2X2X2X2X2X2X2X2X2X",
"2X2X2X2X2X2X2X2X2X2X2X2X2X2X2X2X2X2X2X2X2X2X2X2X2X2X2X2Xs.g.g.g.^._.D.g.r 2X2X2X2X2X2X2X2X2X2X2X2X2X2X2X2X2X2X2X2X2X2X2X2X2X2X2X",
"2X2X2X2X2X2X2X2X2X2X2X2X2X2X2X2X2X2X2X2X2X2X2X2X2X2X2X2 x.v.g.g.V.B.b.h.9 2X2X2X2X2X2X2X2X2X2X2X2X2X2X2X2X2X2X2X2X2X2X2X2X2X2X2X",
"2X2X2X2X2X2X2X2X2X2X2X2X2X2X2X2X2X2X2X2X2X2X2X2X2X2X@ o ,.A.&XS.v.v.v.j.;.+ 2X2X2X2X2X2X2X2X2X2X2X2X2X2X2X2X2X2X2X2X2X2X2X2X2X2X",
"2X2X2X2X2X2X2X2X2X2X2X2X2X2X2X2X2X2X2X2X2X2X2X2X2XO 9 9 2 ,.H.-X-X%XS.v.x.p.i.l.2X2X2X2X2X2X2X2X2X2X2X2X2X2X2X2X2X2X2X2X2X2X2X2X",
"2X2X2X2X2X2X2X2X2X2X2X2X2X2X2X2X2X2X2X2X2X2X2X2X+ 9 9 %.<.r %.p.[.;X-X=XH.v.v.v.l.2X2X2X2X2X2X2X2X2X2X2X2X2X2X2X2X2X2X2X2X2X2X2X",
"2X2X2X2X2X2X2X2X2X2X2X2X2X2X2X2X2X2X2X2X2X2X2X+ 9 9 9 i.n.;.h %.z.H.=X=X=Xn.v.v.=.3 2X2X2X2X2X2X2X2X2X2X2X2X2X2X2X2X2X2X2X2X2X2X",
"2X2X2X2X2X2X2X2X2X2X2X2X2X2X2X2X2X2X2X2X2X2XO 2 9 g a.b.b.p.:.<.c.v.%X-X%Xn.b.;.e r 9 2X2X2X2X2X2X2X2X2X2X2X2X2X2X2X2X2X2X2X2X2X",
"2X2X2X2X2X2X2X2X2X2X2X2X2X2X2X2X2X2X2X2X2X2X+ + g A.A.J.[.A.b.b.b.A.|.&XD.A.;.g =.g 9 2X2X2X2X2X2X2X2X2X2X2X2X2X2X2X2X2X2X2X2X2X",
"2X2X2X2X2X2X2X2X2X2X2X2X2X2X2X2X2X2X2X2X2XO $ + 5.F.D.].$X|.].].].|. XJ.V.c.*.%.C.C.r 2 2X2X2X2X2X2X2X2X2X2X2X2X2X2X2X2X2X2X2X2X",
"2X2X2X2X2X2X2X2X2X2X2X2X2X2X2X2X2X2X2X2X2X  + 3 3.5.&.C.G.|.$X$X$X&X XG.F.F.Z.Z.G.G.j 3 2X2X2X2X2X2X2X2X2X2X2X2X2X2X2X2X2X2X2X2X",
"2X2X2X2X2X2X2X2X2X2X2X2X2X2X2X2X2X2X2X2X2XO 2 r g j &.5.{.B. X#X X#X$X.XB.B.^.^.{.G.c e 3 2X2X2X2X2X2X2X2X2X2X2X2X2X2X2X2X2X2X2X",
"2X2X2X2X2X2X2X2X2X2X2X2X2X2X2X2X2X2X2X2Xo O 9 r j =.;.M./._.#X}.#X}.#X$X}.`.}./.~./.4.4 9 O 2X2X2X2X2X2X2X2X2X2X2X2X2X2X2X2X2X2X",
"2X2X2X2X2X2X2X2X2X2X2X2X2X2X2X2X2X2X2X2XO + e 4 2.(.~./._.#X#X#X#X#XOXOX#X#X#X#X_.'.M.e 9 . O 2X2X2X2X2X2X2X2X2X2X2X2X2X2X2X2X2X",
"2X2X2X2X2X2X2X2X2X2X2X2X2X2X2X2X2X2X2X2XO 2 1 1 3.OX`.`.+XOXOXOXOXOXOXOXOX+XOX+X`.XX8.1 9 9 O 2X2X2X2X2X2X2X2X2X2X2X2X2X2X2X2X2X",
"2X2X2X2X2X2X2X2X2X2X2X2X2X2X2X2X2X2X2X2XO + x -.7.OXXX+X+X+X+X+X+X+X+X+XoX+X+X+XXXXX6.l q + O 2X2X2X2X2X2X2X2X2X2X2X2X2X2X2X2X2X",
"2X2X2X2X2X2X2X2X2X2X2X2X2X2X2X2X2X2X2X2XO 0.a.k.k.'.oX@XoXoX@X@XoXoXoXoXoX@XoXoXoX_.N.N.6.n 2X2X2X2X2X2X2X2X2X2X2X2X2X2X2X2X2X2X",
"2X2X2X2X2X2X2X2X2X2X2X2X2X2X2X2X2X2X2X2X2X^ Y.L.m.K.'.oX@X@X@X@X@X@X@X@X@X@X@XXX).M.9.r.F * 2X2X2X2X2X2X2X2X2X2X2X2X2X2X2X2X2X2X",
"2X2X2X2X2X2X2X2X2X2X2X2X2X2X2X2X2X2X2X2X2X- ) [ $.E.R.>X>X:X<X,X!.!.!.!.u.u.I.( / ~ E K > X 2X2X2X2X2X2X2X2X2X2X2X2X2X2X2X2X2X2X",
"2X2X2X2X2X2X2X2X2X2X2X2X2X2X2X2X2X2X2X2X2X  P | | | +.#.1X#.W.X.| | [ ' ` ! Q T L J J , * 2X2X2X2X2X2X2X2X2X2X2X2X2X2X2X2X2X2X2X",
"2X2X2X2X2X2X2X2X2X2X2X2X2X2X2X2X2X2X2X2X2X2X- _ O.@.@.@.@.@.O.O.{ { ] ~ ! W T L L P I : # 2X2X2X2X2X2X2X2X2X2X2X2X2X2X2X2X2X2X2X",
"2X2X2X2X2X2X2X2X2X2X2X2X2X2X2X2X2X2X2X2X2X2X2X- P _ ] { { | { { ] _ ! ! W T L L L G ; X 2X2X2X2X2X2X2X2X2X2X2X2X2X2X2X2X2X2X2X2X",
"2X2X2X2X2X2X2X2X2X2X2X2X2X2X2X2X2X2X2X2X2X2X2X2X2X< L R R T R R R R T L I G G , ; & 2X2X2X2X2X2X2X2X2X2X2X2X2X2X2X2X2X2X2X2X2X2X",
"2X2X2X2X2X2X2X2X2X2X2X2X2X2X2X2X2X2X2X2X2X2X2X2X2X2X2X# < R G > H : > : > : & X 2X2X2X2X2X2X2X2X2X2X2X2X2X2X2X2X2X2X2X2X2X2X2X2X",
"2X2X2X2X2X2X2X2X2X2X2X2X2X2X2X2X2X2X2X2X2X2X2X2X2X2X2X2X- } 1Xo.} _ ! E T G @ 2X2X2X2X2X2X2X2X2X2X2X2X2X2X2X2X2X2X2X2X2X2X2X2X2X",
"2X2X2X2X2X2X2X2X2X2X2X2X2X2X2X2X2X2X2X2X2X2X2X2X2X2X2X2X2Xv U Y Y U A m n = 2X2X2X2X2X2X2X2X2X2X2X2X2X2X2X2X2X2X2X2X2X2X2X2X2X2X",
"2X2X2X2X2X2X2X2X2X2X2X2X2X2X2X2X2X2X2X2X2X2X2X2X2X2X2X2X2X. 8 d d 5 6 6 6 $ 2X2X2X2X2X2X2X2X2X2X2X2X2X2X2X2X2X2X2X2X2X2X2X2X2X2X",
"2X2X2X2X2X2X2X2X2X2X2X2X2X2X2X2X2X2X2X2X2X2X2X2X2X2X2X2X2X% e.S C z x t t % 2X2X2X2X2X2X2X2X2X2X2X2X2X2X2X2X2X2X2X2X2X2X2X2X2X2X",
"2X2X2X2X2X2X2X2X2X2X2X2X2X2X2X2X2X2X2X2X2X2X2X2X2X2X2X2X2Xv y.t.C C C 8 5 2X2X2X2X2X2X2X2X2X2X2X2X2X2X2X2X2X2X2X2X2X2X2X2X2X2X2X",
"2X2X2X2X2X2X2X2X2X2X2X2X2X2X2X2X2X2X2X2X2X2X2X2X2X2X2X2X2X2Xy.t.S C C 8 5 2X2X2X2X2X2X2X2X2X2X2X2X2X2X2X2X2X2X2X2X2X2X2X2X2X2X2X",
"2X2X2X2X2X2X2X2X2X2X2X2X2X2X2X2X2X2X2X2X2X2X2X2X2X2X2X2X2X2XT.w.e.C C i w 2X2X2X2X2X2X2X2X2X2X2X2X2X2X2X2X2X2X2X2X2X2X2X2X2X2X2X",
"2X2X2X2X2X2X2X2X2X2X2X2X2X2X2X2X2X2X2X2X2X2X2X2X2X2X2X2X2X2XT.w.S S C i $ 2X2X2X2X2X2X2X2X2X2X2X2X2X2X2X2X2X2X2X2X2X2X2X2X2X2X2X",
"2X2X2X2X2X2X2X2X2X2X2X2X2X2X2X2X2X2X2X2X2X2X2X2X2X2X2X2X2X2XT.e.S S V t $ 2X2X2X2X2X2X2X2X2X2X2X2X2X2X2X2X2X2X2X2X2X2X2X2X2X2X2X",
"2X2X2X2X2X2X2X2X2X2X2X2X2X2X2X2X2X2X2X2X2X2X2X2X2X2X2X2X2X2XY.S S Z p p $ 2X2X2X2X2X2X2X2X2X2X2X2X2X2X2X2X2X2X2X2X2X2X2X2X2X2X2X",
"2X2X2X2X2X2X2X2X2X2X2X2X2X2X2X2X2X2X2X2X2X2X2X2X2X2X2X2X2X2Xy.0.0.V p x $ 2X2X2X2X2X2X2X2X2X2X2X2X2X2X2X2X2X2X2X2X2X2X2X2X2X2X2X",
"2X2X2X2X2X2X2X2X2X2X2X2X2X2X2X2X2X2X2X2X2X2X2X2X2X2X2X2X2X2XD e.S c a u 2X2X2X2X2X2X2X2X2X2X2X2X2X2X2X2X2X2X2X2X2X2X2X2X2X2X2X2X",
"2X2X2X2X2X2X2X2X2X2X2X2X2X2X2X2X2X2X2X2X2X2X2X2X2X2X2X2X2X2X2XB f b v @ 2X2X2X2X2X2X2X2X2X2X2X2X2X2X2X2X2X2X2X2X2X2X2X2X2X2X2X2X",
"2X2X2X2X2X2X2X2X2X2X2X2X2X2X2X2X2X2X2X2X2X2X2X2X2X2X2X2X2X2X2Xq.M y 0 2X2X2X2X2X2X2X2X2X2X2X2X2X2X2X2X2X2X2X2X2X2X2X2X2X2X2X2X2X",
"2X2X2X2X2X2X2X2X2X2X2X2X2X2X2X2X2X2X2X2X2X2X2X2X2X2X2X2X2X2X2XD N b 0 2X2X2X2X2X2X2X2X2X2X2X2X2X2X2X2X2X2X2X2X2X2X2X2X2X2X2X2X2X",
"2X2X2X2X2X2X2X2X2X2X2X2X2X2X2X2X2X2X2X2X2X2X2X2X2X2X2X2X2X2X2X2Xl y 0 2X2X2X2X2X2X2X2X2X2X2X2X2X2X2X2X2X2X2X2X2X2X2X2X2X2X2X2X2X",
"2X2X2X2X2X2X2X2X2X2X2X2X2X2X2X2X2X2X2X2X2X2X2X2X2X2X2X2X2X2X2X2XM y 0 2X2X2X2X2X2X2X2X2X2X2X2X2X2X2X2X2X2X2X2X2X2X2X2X2X2X2X2X2X",
"2X2X2X2X2X2X2X2X2X2X2X2X2X2X2X2X2X2X2X2X2X2X2X2X2X2X2X2X2X2X2X2XN b 0 2X2X2X2X2X2X2X2X2X2X2X2X2X2X2X2X2X2X2X2X2X2X2X2X2X2X2X2X2X",
"2X2X2X2X2X2X2X2X2X2X2X2X2X2X2X2X2X2X2X2X2X2X2X2X2X2X2X2X2X2X2X2Xl x y 2X2X2X2X2X2X2X2X2X2X2X2X2X2X2X2X2X2X2X2X2X2X2X2X2X2X2X2X2X",
"2X2X2X2X2X2X2X2X2X2X2X2X2X2X2X2X2X2X2X2X2X2X2X2X2X2X2X2X2X2X2X2X2Xx p 2X2X2X2X2X2X2X2X2X2X2X2X2X2X2X2X2X2X2X2X2X2X2X2X2X2X2X2X2X",
"2X2X2X2X2X2X2X2X2X2X2X2X2X2X2X2X2X2X2X2X2X2X2X2X2X2X2X2X2X2X2X2X2X2X2X2X2X2X2X2X2X2X2X2X2X2X2X2X2X2X2X2X2X2X2X2X2X2X2X2X2X2X2X2X",
"2X2X2X2X2X2X2X2X2X2X2X2X2X2X2X2X2X2X2X2X2X2X2X2X2X2X2X2X2X2X2X2X2X2X2X2X2X2X2X2X2X2X2X2X2X2X2X2X2X2X2X2X2X2X2X2X2X2X2X2X2X2X2X2X",
"2X2X2X2X2X2X2X2X2X2X2X2X2X2X2X2X2X2X2X2X2X2X2X2X2X2X2X2X2X2X2X2X2X2X2X2X2X2X2X2X2X2X2X2X2X2X2X2X2X2X2X2X2X2X2X2X2X2X2X2X2X2X2X2X",
"2X2X2X2X2X2X2X2X2X2X2X2X2X2X2X2X2X2X2X2X2X2X2X2X2X2X2X2X2X2X2X2X2X2X2X2X2X2X2X2X2X2X2X2X2X2X2X2X2X2X2X2X2X2X2X2X2X2X2X2X2X2X2X2X",
"2X2X2X2X2X2X2X2X2X2X2X2X2X2X2X2X2X2X2X2X2X2X2X2X2X2X2X2X2X2X2X2X2X2X2X2X2X2X2X2X2X2X2X2X2X2X2X2X2X2X2X2X2X2X2X2X2X2X2X2X2X2X2X2X",
"2X2X2X2X2X2X2X2X2X2X2X2X2X2X2X2X2X2X2X2X2X2X2X2X2X2X2X2X2X2X2X2X2X2X2X2X2X2X2X2X2X2X2X2X2X2X2X2X2X2X2X2X2X2X2X2X2X2X2X2X2X2X2X2X",
"2X2X2X2X2X2X2X2X2X2X2X2X2X2X2X2X2X2X2X2X2X2X2X2X2X2X2X2X2X2X2X2X2X2X2X2X2X2X2X2X2X2X2X2X2X2X2X2X2X2X2X2X2X2X2X2X2X2X2X2X2X2X2X2X"
};
