/* XPM */
static char *result[] = {
/* columns rows colors chars-per-pixel */
"64 64 211 2 ",
"   c #2B1811",
".  c #321B11",
"X  c #3A1D12",
"o  c #2D2717",
"O  c #300C21",
"+  c #3F152D",
"@  c #371F35",
"#  c #25172E",
"$  c #302120",
"%  c #33343B",
"&  c #481F0F",
"*  c #441E13",
"=  c #4D1F12",
"-  c #541D16",
";  c #4C290A",
":  c #502C0A",
">  c #4D2112",
",  c #4A2618",
"<  c #532313",
"1  c #5B2412",
"2  c #52251D",
"3  c #5D291C",
"4  c #502C12",
"5  c #5B3414",
"6  c #5D341B",
"7  c #543618",
"8  c #6A290F",
"9  c #61340D",
"0  c #632513",
"q  c #6C2612",
"w  c #672B18",
"e  c #742A12",
"r  c #613516",
"t  c #6A3A14",
"y  c #6B3B19",
"u  c #64351A",
"i  c #75391A",
"p  c #772A0E",
"a  c #46173E",
"s  c #552620",
"d  c #47352A",
"f  c #4A3832",
"g  c #553F31",
"h  c #723522",
"j  c #773924",
"k  c #6F3225",
"l  c #74441B",
"z  c #78461C",
"x  c #504931",
"c  c #5C593A",
"v  c #7D4C24",
"b  c #764427",
"n  c #615022",
"m  c #7F522B",
"M  c #7B5737",
"N  c #3B3B43",
"B  c #3A3744",
"V  c #392A46",
"C  c #6F0045",
"Z  c #7A0045",
"A  c #671044",
"S  c #7E0950",
"D  c #791844",
"F  c #493B55",
"G  c #702248",
"H  c #773742",
"J  c #3D4047",
"K  c #3B4755",
"L  c #345547",
"P  c #414146",
"I  c #43444C",
"U  c #48474D",
"Y  c #4B4B53",
"T  c #484C5A",
"R  c #48535A",
"E  c #54535B",
"W  c #5A575D",
"Q  c #655859",
"!  c #45615A",
"~  c #707155",
"^  c #4B5263",
"/  c #5C5964",
"(  c #575B65",
")  c #635E66",
"_  c #5E686A",
"`  c #5A7C67",
"'  c #626166",
"]  c #676369",
"[  c #6A646D",
"{  c #686B6E",
"}  c #7B6C6F",
"|  c #6A6873",
" . c #6F7678",
".. c #757375",
"X. c #76737B",
"o. c #7C7779",
"O. c #746E78",
"+. c #842D13",
"@. c #8D2E10",
"#. c #912F12",
"$. c #8A3212",
"%. c #883812",
"&. c #9C3713",
"*. c #933813",
"=. c #973715",
"-. c #A6330F",
";. c #AC3A12",
":. c #A33711",
">. c #B33D16",
",. c #811537",
"<. c #C2111B",
"1. c #D53F0D",
"2. c #FF3C02",
"3. c #E63D06",
"4. c #824E1F",
"5. c #954515",
"6. c #9F4416",
"7. c #B9550E",
"8. c #AB4212",
"9. c #B04612",
"0. c #BA5611",
"q. c #85542C",
"w. c #87532B",
"e. c #8C5B31",
"r. c #8C6535",
"t. c #A46732",
"y. c #DC4108",
"u. c #C94314",
"i. c #C64B13",
"p. c #DB4915",
"a. c #C65E10",
"s. c #D05610",
"d. c #FF4505",
"f. c #FE4C06",
"g. c #FD450B",
"h. c #FE4C0C",
"j. c #F24807",
"k. c #F95C08",
"l. c #EB4312",
"z. c #FE4D12",
"x. c #F84915",
"c. c #FE5214",
"v. c #FB5E14",
"b. c #FF5A18",
"n. c #EB5B10",
"m. c #C36F15",
"M. c #D47B1F",
"N. c #DB6814",
"B. c #FD6907",
"V. c #FE720D",
"C. c #FE7C0B",
"Z. c #FA7201",
"A. c #FE6C14",
"S. c #FE6619",
"D. c #F67211",
"F. c #FE7510",
"G. c #FF7914",
"H. c #F87B14",
"J. c #C0712E",
"K. c #90215A",
"L. c #813845",
"P. c #8C0072",
"I. c #9F3761",
"U. c #9B7C49",
"Y. c #866956",
"T. c #967250",
"R. c #A67A53",
"E. c #9D7D72",
"W. c #8A766F",
"Q. c #B96665",
"!. c #D78610",
"~. c #FD8E01",
"^. c #FF860C",
"/. c #FE8C0B",
"(. c #F5840C",
"). c #EA960B",
"_. c #FE950A",
"`. c #FE9D09",
"'. c #E18111",
"]. c #FF8410",
"[. c #FD8819",
"{. c #FF9D16",
"}. c #FF9917",
"|. c #FEA407",
" X c #F5AC05",
".X c #FDAE03",
"XX c #FFA009",
"oX c #FFAB0B",
"OX c #F7A305",
"+X c #FDB103",
"@X c #FFB50A",
"#X c #FFA413",
"$X c #FFAA13",
"%X c #FEAA1A",
"&X c #FEA61E",
"*X c #FF8B21",
"=X c #FD9624",
"-X c #FEAF24",
";X c #FFA520",
":X c #FFB326",
">X c #FEBC2C",
",X c #FFB428",
"<X c #FEC12A",
"1X c #FFD832",
"2X c #AB8256",
"3X c #B3885D",
"4X c #B88B61",
"5X c #A6836C",
"6X c #CF9E76",
"7X c #767784",
"8X c None",
/* pixels */
"8X8X8X8X8X8X8X8X8X8X8X8X8X8X8X8X8X8X8X8X8X8X8X8X8X8X8X8X8X8X8X8X8X8X8X8X8X8X8X8X8X8X8X8X8X8X8X8X8X8X8X8X8X8X8X8X8X8X8X8X8X8X8X8X",
"8X8X8X8X8X8X8X8X8X8X8X8X8X8X8X8X8X8X8X8X8X8X8X8X8X8X8X8X8X8X8X8X8X8X8X8X8X8X8X8X8X8X8X8X8X8X8X8X8X8X8X8X8X8X8X8X8X8X8X8X8X8X8X8X",
"8X8X8X8X8X8X8X8X8X8X8X8X8X8X8X8X8X8X8X8X8X8X8X8X8X8X8X8X8X8X8X8X8X8X8X8X8X8X8X8X8X8X8X8X8X8X8X8X8X8X8X8X8X8X8X8X8X8X8X8X8X8X8X8X",
"8X8X8X8X8X8X8X8X8X8X8X8X8X8X8X8X8X8X8X8X8X8X8X8X8X8X8X8X8X8X8X8X8X8X8X8X8X8X8X8X8X8X8X8X8X8X8X8X8X8X8X8X8X8X8X8X8X8X8X8X8X8X8X8X",
"8X8X8X8X8X8X8X8X8X8X8X8X8X8X8X8X8X8X8X8X8X8X8X8X8X8X8X8X8X8X8X8X8X8X8X8X8X8X8X8X8X8X8X8X8X8X8X8X8X8X8X8X8X8X8X8X8X8X8X8X8X8X8X8X",
"8X8X8X8X8X8X8X8X8X8X8X8X8X8X8X8X8X8X8X8X8X8X8X8X8X8X8X8X8X8X8X8X8X8X8X8X8X8X8X8X8X8X8X8X8X8X8X8X8X8X8X8X8X8X8X8X8X8X8X8X8X8X8X8X",
"8X8X8X8X8X8X8X8X8X8X8X8X8X8X8X8X8X8X8X8X8X8X8X8X8X8X8X8X8X8X8X8X8X8X8X8X8X8X8X8X8X8X8X8X8X8X8X8X8X8X8X8X8X8X8X8X8X8X8X8X8X8X8X8X",
"8X8X8X8X8X8X8X8X8X8X8X8X8X8X8X8X8X8X8X8X8X8X8X8X8X8X8X8X8X8X8X8X8X8X8X8X8X8X8X8X8X8X8X8X8X8X8X8X8X8X8X8X8X8X8X8X8X8X8X8X8X8X8X8X",
"8X8X8X8X8X8X8X8X8X8X8X8X8X8X8X8X8X8X8X8X8X8X8X8X8X8X8X8X8X8X8X8X8X8X8X8X8X8X8X8X8X8X8X8X8X8X8X8X8X8X8X8X8X8X8X8X8X8X8X8X8X8X8X8X",
"8X8X8X8X8X8X8X8X8X8X8X8X8X8X8X8X8X8X8X8X8X8X8X8X8X8X8X8X8X8X8X8X8X8X8X8X8X8X8X8X8X8X8X8X8X8X8X8X8X8X8X8X8X8X8X8X8X8X8X8X8X8X8X8X",
"8X8X8X8X8X8X8X8X8X8X8X8X8X8X8X8X8X8X8X8X8X8X8X8X8X8X8X8X8X8X8X8X8X8X8X8X8X8X8X8X8X8X8X8X8X8X8X8X8X8X8X8X8X8X8X8X8X8X8X8X8X8X8X8X",
"8X8X8X8X8X8X8X8X8X8X8X8X8X8X8X8X8X8X8X8X8X8X8X8X8X8X8X8X8Xy.j.8X8X8X8X8X8X8X8X8X8X8X8X8X8X8X8X8X8X8X8X8X8X8X8X8X8X8X8X8X8X8X8X8X",
"8X8X8X8X8X8X8X8X8X8X8X8X8X8X8X8X8X8X8X8X8X8X8X8X8X8X8X8X8XV.A.+.<.8X8X8X8X8X8X8X8X8X8X8X8X8X8X8X8X8X8X8X8X8X8X8X8X8X8X8X8X8X8X8X",
"8X8X8X8X8X8X8X8X8X8X8X8X8X8X8X8X8X8X8X8X8X8X8X8X8X8X8X8X,.&.&.;.d.2.3.8X8X8X8X8X8X8X8X8X8X8X8X8X8X8X8X8X8X8X8X8X8X8X8X8X8X8X8X8X",
"8X8X8X8X8X8X8X8X8X8X8X8X8X8X8X8X8X8X8X8X8X8X8X8X8X8X8XG 8 #.1.2.f.C.f.d.8X8X8X8X8X8X8X8X8X8X8X8X8X8X8X8X8X8X8X8X8X8X8X8X8X8X8X8X",
"8X8X8X8X8X8X8X8X8X8X8X8X8X8X8X8X8X8X8X8X8X8X8X8X8X8X8X< :.g.g.g.C.@X/.d.f.8X8X8X8X8X8X8X8X8X8X8X8X8X8X8X8X8X8X8X8X8X8X8X8X8X8X8X",
"8X8X8X8X8X8X8X8X8X8X8X8X8X8X8X8X8X8X8X8X8X8X8X8X8X8Xa +.f.g.g.V.^.C.^.h.h.h.8X8X8X8X8X8X8X8X8X8X8X8X8X8X8X8X8X8X8X8X8X8X8X8X8X8X",
"8X8X8X8X8X8X8X8X8X8X8X8X8X8X8X8X8X8X8X8X8X8X8X8X8Xa X @.h.h.f.S.h.f.c.h.z.z.8X8X8X8X8X8X8X8X8X8X8X8X8X8X8X8X8X8X8X8X8X8X8X8X8X8X",
"8X8X8X8X8X8X8X8X8X8X8X8X8X8X8X8X8X8X8X8X8X8X8X8Xk p > < ;.z.z.c.[.z.z.c.z.c.u.8X8X8X8X8X8X8X8X8X8X8X8X8X8X8X8X8X8X8X8X8X8X8X8X8X",
"8X8X8X8X8X8X8X8X8X8X8X8X8X8X8X8X8X8X8X8X8X8X8XD B.n.< 0 1 u.z.S.1X*Xx.x.p.x.$.< > 8X8X8X8X8X8X8X8X8X8X8X8X8X8X8X8X8X8X8X8X8X8X8X",
"8X8X8X8X8X8X8X8X8X8X8X8X8X8X8X8X8X8X8X8X8X8X8X> 5.i >.>.;.l.S.,X1X=Xz.;.e +.0 1 < > 8X8X8X8X8X8X8X8X8X8X8X8X8X8X8X8X8X8X8X8X8X8X",
"8X8X8X8X8X8X8X8X8X8X8X8X8X8X8X8X8X8X8X8X8XA * & < u.b.c.b.*X>X>X>X=Xb.p.:.+.&.i.q > 8X8X8X8X8X8X8X8X8X8X8X8X8X8X8X8X8X8X8X8X8X8X",
"8X8X8X8X8X8X8X8X8X8X8X8X8X8X8X8X8X8X8X8X8XX & > s.S.S.S.-X<X>X:X,X>X=XS.v.n.v.A.8.- > 8X8X8X8X8X8X8X8X8X8X8X8X8X8X8X8X8X8X8X8X8X",
"8X8X8X8X8X8X8X8X8X8X8X8X8X8X8X8X8X8X8X8X8XX > 1 9.A.D.G.[.H.{.:X:X;XG.A.A.F.A.A.*.0 < 8X8X8X8X8X8X8X8X8X8X8X8X8X8X8X8X8X8X8X8X8X",
"8X8X8X8X8X8X8X8X8X8X8X8X8X8X8X8X8X8X8X8X  * 1 q p *.7.D.F.A.[.%X&X&XC.V.F.F.F.D.@.e 1 8X8X8X8X8X8X8X8X8X8X8X8X8X8X8X8X8X8X8X8X8X",
"8X8X8X8X8X8X8X8X8X8X8X8X8X8X8X8X8X8X8X8X. & 1 q *.i.:.D.]./.%X%X%X%X%X}.{.#X].^.a.8 8 > 8X8X8X8X8X8X8X8X8X8X8X8X8X8X8X8X8X8X8X8X",
"8X8X8X8X8X8X8X8X8X8X8X8X8X8X8X8X8X8X8X8XX = 0 q 7._.(./._.$X$X$X%X%X%X%X$X$X#X/./.%.0 < 8X8X8X8X8X8X8X8X8X8X8X8X8X8X8X8X8X8X8X8X",
"8X8X8X8X8X8X8X8X8X8X8X8X8X8X8X8X8X8X8X. X * - 0 7.`._.`.$X$X$X$XoXoXoXoX$XoX#X_.`.5.- > H 8X8X8X8X8X8X8X8X8X8X8X8X8X8X8X8X8X8X8X",
"8X8X8X8X8X8X8X8X8X8X8X8X8X8X8X8X8X8X8X. * i 6.7.N.OX`.|.oXoXoXoXoXoXoX.XoXoX|.|.`.a.5.w 8X8X8X8X8X8X8X8X8X8X8X8X8X8X8X8X8X8X8X8X",
"8X8X8X8X8X8X8X8X8X8X8X8X8X8X8X8X8X8X8X  b N.k.B.Z.~..X.X@X+X+X+X.X+XoX.X@X+X.X+X~.Z.B.a.Q 8X8X8X8X8X8X8X8X8X8X8X8X8X8X8X8X8X8X8X",
"8X8X8X8X8X8X8X8X8X8X8X8X8X8X8X8X8X8X8X8X% Y.U.J.M.!.).OX.X.X+X.X+X.X.X.X.XOX).!.m.t.M ) K 8X8X8X8X8X8X8X8X8X8X8X8X8X8X8X8X8X8X8X",
"8X8X8X8X8X8X8X8X8X8X8X8X8X8X8X8X8X8X8X8X6 Y ) ) } W.E.5X5X3X3X2XR.R.R.T.Y.~ Q W T T K ^ 8X8X8X8X8X8X8X8X8X8X8X8X8X8X8X8X8X8X8X8X",
"8X8X8X8X8X8X8X8X8X8X8X8X8X8X8X8X8X8X8X8X8Xc { ....X.X.7XX...O.[ | [ ) ( E Y I F P P ^ 8X8X8X8X8X8X8X8X8X8X8X8X8X8X8X8X8X8X8X8X8X",
"8X8X8X8X8X8X8X8X8X8X8X8X8X8X8X8X8X8X8X8X8X8X~  ...X.W.o.o.o.....{ ' W W E Y I J U ^ R 8X8X8X8X8X8X8X8X8X8X8X8X8X8X8X8X8X8X8X8X8X",
"8X8X8X8X8X8X8X8X8X8X8X8X8X8X8X8X8X8X8X8X8X8X8X8X` { _ ' ] ] _ / W E E Y I I I F F 8X8X8X8X8X8X8X8X8X8X8X8X8X8X8X8X8X8X8X8X8X8X8X",
"8X8X8X8X8X8X8X8X8X8X8X8X8X8X8X8X8X8X8X8X8X8X8X8X8X8X! R U I I I U P N N N N V @ 8X8X8X8X8X8X8X8X8X8X8X8X8X8X8X8X8X8X8X8X8X8X8X8X",
"8X8X8X8X8X8X8X8X8X8X8X8X8X8X8X8X8X8X8X8X8X8X8X8X8X8X8XL ( U J N % B % % % $ O 8X8X8X8X8X8X8X8X8X8X8X8X8X8X8X8X8X8X8X8X8X8X8X8X8X",
"8X8X8X8X8X8X8X8X8X8X8X8X8X8X8X8X8X8X8X8X8X8X8X8X8X8X8X8X_ 7X7X7X| / / R F # 8X8X8X8X8X8X8X8X8X8X8X8X8X8X8X8X8X8X8X8X8X8X8X8X8X8X",
"8X8X8X8X8X8X8X8X8X8X8X8X8X8X8X8X8X8X8X8X8X8X8X8X8X8X8X8X8Xx g x f f d , $ 8X8X8X8X8X8X8X8X8X8X8X8X8X8X8X8X8X8X8X8X8X8X8X8X8X8X8X",
"8X8X8X8X8X8X8X8X8X8X8X8X8X8X8X8X8X8X8X8X8X8X8X8X8X8X8X8X8Xn t t 9 ; ; : o 8X8X8X8X8X8X8X8X8X8X8X8X8X8X8X8X8X8X8X8X8X8X8X8X8X8X8X",
"8X8X8X8X8X8X8X8X8X8X8X8X8X8X8X8X8X8X8X8X8X8X8X8X8X8X8X8X8Xr.q.z r t 5 : o 8X8X8X8X8X8X8X8X8X8X8X8X8X8X8X8X8X8X8X8X8X8X8X8X8X8X8X",
"8X8X8X8X8X8X8X8X8X8X8X8X8X8X8X8X8X8X8X8X8X8X8X8X8X8X8X8X8XU.r.v t l 5 4 8X8X8X8X8X8X8X8X8X8X8X8X8X8X8X8X8X8X8X8X8X8X8X8X8X8X8X8X",
"8X8X8X8X8X8X8X8X8X8X8X8X8X8X8X8X8X8X8X8X8X8X8X8X8X8X8X8X8X2Xq.m l l 5 4 8X8X8X8X8X8X8X8X8X8X8X8X8X8X8X8X8X8X8X8X8X8X8X8X8X8X8X8X",
"8X8X8X8X8X8X8X8X8X8X8X8X8X8X8X8X8X8X8X8X8X8X8X8X8X8X8X8X8X2Xq.q.l l 5 7 8X8X8X8X8X8X8X8X8X8X8X8X8X8X8X8X8X8X8X8X8X8X8X8X8X8X8X8X",
"8X8X8X8X8X8X8X8X8X8X8X8X8X8X8X8X8X8X8X8X8X8X8X8X8X8X8X8X8X2Xe.4.v l 7 7 8X8X8X8X8X8X8X8X8X8X8X8X8X8X8X8X8X8X8X8X8X8X8X8X8X8X8X8X",
"8X8X8X8X8X8X8X8X8X8X8X8X8X8X8X8X8X8X8X8X8X8X8X8X8X8X8X8X8X4Xe.b v y 4 b 8X8X8X8X8X8X8X8X8X8X8X8X8X8X8X8X8X8X8X8X8X8X8X8X8X8X8X8X",
"8X8X8X8X8X8X8X8X8X8X8X8X8X8X8X8X8X8X8X8X8X8X8X8X8X8X8X8X8X6Xw.v z r 6 v 8X8X8X8X8X8X8X8X8X8X8X8X8X8X8X8X8X8X8X8X8X8X8X8X8X8X8X8X",
"8X8X8X8X8X8X8X8X8X8X8X8X8X8X8X8X8X8X8X8X8X8X8X8X8X8X8X8X8X8Xw.4.z 5 5 8X8X8X8X8X8X8X8X8X8X8X8X8X8X8X8X8X8X8X8X8X8X8X8X8X8X8X8X8X",
"8X8X8X8X8X8X8X8X8X8X8X8X8X8X8X8X8X8X8X8X8X8X8X8X8X8X8X8X8X8Xw.v h 6 , 8X8X8X8X8X8X8X8X8X8X8X8X8X8X8X8X8X8X8X8X8X8X8X8X8X8X8X8X8X",
"8X8X8X8X8X8X8X8X8X8X8X8X8X8X8X8X8X8X8X8X8X8X8X8X8X8X8X8X8X8XQ.w 3 2 L.8X8X8X8X8X8X8X8X8X8X8X8X8X8X8X8X8X8X8X8X8X8X8X8X8X8X8X8X8X",
"8X8X8X8X8X8X8X8X8X8X8X8X8X8X8X8X8X8X8X8X8X8X8X8X8X8X8X8X8X8X8Xb u 2 I.8X8X8X8X8X8X8X8X8X8X8X8X8X8X8X8X8X8X8X8X8X8X8X8X8X8X8X8X8X",
"8X8X8X8X8X8X8X8X8X8X8X8X8X8X8X8X8X8X8X8X8X8X8X8X8X8X8X8X8X8X8Xh 3 s K.8X8X8X8X8X8X8X8X8X8X8X8X8X8X8X8X8X8X8X8X8X8X8X8X8X8X8X8X8X",
"8X8X8X8X8X8X8X8X8X8X8X8X8X8X8X8X8X8X8X8X8X8X8X8X8X8X8X8X8X8X8Xh 3 2 S 8X8X8X8X8X8X8X8X8X8X8X8X8X8X8X8X8X8X8X8X8X8X8X8X8X8X8X8X8X",
"8X8X8X8X8X8X8X8X8X8X8X8X8X8X8X8X8X8X8X8X8X8X8X8X8X8X8X8X8X8X8Xh 3 2 C 8X8X8X8X8X8X8X8X8X8X8X8X8X8X8X8X8X8X8X8X8X8X8X8X8X8X8X8X8X",
"8X8X8X8X8X8X8X8X8X8X8X8X8X8X8X8X8X8X8X8X8X8X8X8X8X8X8X8X8X8X8Xj 3 s 8X8X8X8X8X8X8X8X8X8X8X8X8X8X8X8X8X8X8X8X8X8X8X8X8X8X8X8X8X8X",
"8X8X8X8X8X8X8X8X8X8X8X8X8X8X8X8X8X8X8X8X8X8X8X8X8X8X8X8X8X8X8XP.y 5 8X8X8X8X8X8X8X8X8X8X8X8X8X8X8X8X8X8X8X8X8X8X8X8X8X8X8X8X8X8X",
"8X8X8X8X8X8X8X8X8X8X8X8X8X8X8X8X8X8X8X8X8X8X8X8X8X8X8X8X8X8X8X8X8XZ 8X8X8X8X8X8X8X8X8X8X8X8X8X8X8X8X8X8X8X8X8X8X8X8X8X8X8X8X8X8X",
"8X8X8X8X8X8X8X8X8X8X8X8X8X8X8X8X8X8X8X8X8X8X8X8X8X8X8X8X8X8X8X8X8X8X8X8X8X8X8X8X8X8X8X8X8X8X8X8X8X8X8X8X8X8X8X8X8X8X8X8X8X8X8X8X",
"8X8X8X8X8X8X8X8X8X8X8X8X8X8X8X8X8X8X8X8X8X8X8X8X8X8X8X8X8X8X8X8X8X8X8X8X8X8X8X8X8X8X8X8X8X8X8X8X8X8X8X8X8X8X8X8X8X8X8X8X8X8X8X8X",
"8X8X8X8X8X8X8X8X8X8X8X8X8X8X8X8X8X8X8X8X8X8X8X8X8X8X8X8X8X8X8X8X8X8X8X8X8X8X8X8X8X8X8X8X8X8X8X8X8X8X8X8X8X8X8X8X8X8X8X8X8X8X8X8X",
"8X8X8X8X8X8X8X8X8X8X8X8X8X8X8X8X8X8X8X8X8X8X8X8X8X8X8X8X8X8X8X8X8X8X8X8X8X8X8X8X8X8X8X8X8X8X8X8X8X8X8X8X8X8X8X8X8X8X8X8X8X8X8X8X",
"8X8X8X8X8X8X8X8X8X8X8X8X8X8X8X8X8X8X8X8X8X8X8X8X8X8X8X8X8X8X8X8X8X8X8X8X8X8X8X8X8X8X8X8X8X8X8X8X8X8X8X8X8X8X8X8X8X8X8X8X8X8X8X8X",
"8X8X8X8X8X8X8X8X8X8X8X8X8X8X8X8X8X8X8X8X8X8X8X8X8X8X8X8X8X8X8X8X8X8X8X8X8X8X8X8X8X8X8X8X8X8X8X8X8X8X8X8X8X8X8X8X8X8X8X8X8X8X8X8X",
"8X8X8X8X8X8X8X8X8X8X8X8X8X8X8X8X8X8X8X8X8X8X8X8X8X8X8X8X8X8X8X8X8X8X8X8X8X8X8X8X8X8X8X8X8X8X8X8X8X8X8X8X8X8X8X8X8X8X8X8X8X8X8X8X"
};
