/* XPM */
static char *result[] = {
/* columns rows colors chars-per-pixel */
"64 64 213 2 ",
"   c #1B1614",
".  c #2E1A14",
"X  c #281816",
"o  c #331B13",
"O  c #3A1D12",
"+  c #3D1B1D",
"@  c #3E151D",
"#  c #2A190C",
"$  c #3C2214",
"%  c #3A2218",
"&  c #333B13",
"*  c #3F1C22",
"=  c #381630",
"-  c #2F2E28",
";  c #3F2F38",
":  c #33343B",
">  c #393A3F",
",  c #2B3725",
"<  c #411C0B",
"1  c #431D12",
"2  c #461D19",
"3  c #561B00",
"4  c #651700",
"5  c #45240B",
"6  c #542C0A",
"7  c #59220F",
"8  c #442111",
"9  c #482913",
"0  c #4D221D",
"q  c #482615",
"w  c #522212",
"e  c #542D12",
"r  c #5C2A1C",
"t  c #572619",
"y  c #5A3313",
"u  c #5A3417",
"i  c #6C260C",
"p  c #762B0E",
"a  c #61310A",
"s  c #75300F",
"d  c #642412",
"f  c #6B2A12",
"g  c #672E1C",
"h  c #742C11",
"j  c #7A2810",
"k  c #6C3C17",
"l  c #6F3B19",
"z  c #653717",
"x  c #401921",
"c  c #4D2C25",
"v  c #48322D",
"b  c #5A3C29",
"n  c #4C2E33",
"m  c #542F3C",
"M  c #4D333B",
"N  c #55332F",
"B  c #6D3521",
"V  c #6D3925",
"C  c #7A3D26",
"Z  c #3A4B39",
"A  c #364A23",
"S  c #6F431C",
"D  c #72421B",
"F  c #7B471F",
"G  c #66452B",
"H  c #7D4C23",
"J  c #7C4A2D",
"K  c #664B3A",
"L  c #3E274E",
"P  c #3E3B46",
"I  c #413E4A",
"U  c #4A3952",
"Y  c #503C50",
"T  c #492D46",
"R  c #3F4045",
"E  c #3F4859",
"W  c #434444",
"Q  c #43434A",
"!  c #48464E",
"~  c #494748",
"^  c #574947",
"/  c #454553",
"(  c #4D4D54",
")  c #4A4C57",
"_  c #564D54",
"`  c #535259",
"'  c #58575D",
"]  c #5D575A",
"[  c #705D4E",
"{  c #605454",
"}  c #6D7657",
"|  c #4F5D6B",
" . c #595864",
".. c #575B73",
"X. c #665B69",
"o. c #5E626D",
"O. c #6B6A6D",
"+. c #686469",
"@. c #71686A",
"#. c #6E6D74",
"$. c #6B6D7C",
"%. c #756873",
"&. c #6E707C",
"*. c #7C747B",
"=. c #787578",
"-. c #8C3312",
";. c #823315",
":. c #963814",
">. c #BD380B",
",. c #B23C14",
"<. c #903228",
"1. c #C73B08",
"2. c #DC3D06",
"3. c #F43F08",
"4. c #834D1F",
"5. c #9C4C11",
"6. c #A14E0C",
"7. c #A3481D",
"8. c #B74514",
"9. c #BF740F",
"0. c #814F25",
"q. c #844A28",
"w. c #84542B",
"e. c #8A552B",
"r. c #8B5A33",
"t. c #9D5339",
"y. c #B14022",
"u. c #A35725",
"i. c #96653B",
"p. c #AE753D",
"a. c #CA4415",
"s. c #D05313",
"d. c #D25613",
"f. c #FF4309",
"g. c #FE490D",
"h. c #FF4907",
"j. c #EE5F03",
"k. c #FD5B0D",
"l. c #FF530A",
"z. c #E84615",
"x. c #FF4E13",
"c. c #F64914",
"v. c #E85518",
"b. c #FF5614",
"n. c #FE5D14",
"m. c #FF5418",
"M. c #DC6B0F",
"N. c #DA750D",
"B. c #C96B17",
"V. c #DC6113",
"C. c #D17A10",
"Z. c #C36B0A",
"A. c #FB6708",
"S. c #F97C0D",
"D. c #ED6116",
"F. c #FE6415",
"G. c #FF6B15",
"H. c #FF651B",
"J. c #F86918",
"K. c #FE7513",
"L. c #FE7B12",
"P. c #FE7E18",
"I. c #FD751C",
"U. c #FF772D",
"Y. c #896848",
"T. c #9B7840",
"R. c #A06F44",
"E. c #A47248",
"W. c #A67B58",
"Q. c #947062",
"!. c #837170",
"~. c #678A76",
"^. c #B98639",
"/. c #FD930E",
"(. c #FF9E0A",
"). c #F99803",
"_. c #FC831B",
"`. c #FE8D1C",
"'. c #FC8617",
"]. c #FE9413",
"[. c #FE9D14",
"{. c #FE941B",
"}. c #FF9B1B",
"|. c #E7940A",
" X c #FEAC05",
".X c #FEA40C",
"XX c #FEAB09",
"oX c #FBA801",
"OX c #FFB500",
"+X c #FEA013",
"@X c #FDA41E",
"#X c #C88C38",
"$X c #CE943C",
"%X c #FE8C26",
"&X c #FF9724",
"*X c #FE9D25",
"=X c #FF8C3C",
"-X c #FF9C35",
";X c #FEA226",
":X c #FFAB23",
">X c #FFA228",
",X c #FFB225",
"<X c #FCBA25",
"1X c #FFBF39",
"2X c #FDC226",
"3X c #BC8D55",
"4X c #80817A",
"5X c #C5914B",
"6X c #FF8C5D",
"7X c #FFDB44",
"8X c #7C7583",
"9X c #687C84",
"0X c None",
/* pixels */
"0X0X0X0X0X0X0X0X0X0X0X0X0X0X0X0X0X0X0X0X0X0X0X0X0X0X0X0X0X0X0X0X0X0X0X0X0X0X0X0X0X0X0X0X0X0X0X0X0X0X0X0X0X0X0X0X0X0X0X0X0X0X0X0X",
"0X0X0X0X0X0X0X0X0X0X0X0X0X0X0X0X0X0X0X0X0X0X0X0X0X0X0X0X0X0X0X0X0X0X0X0X0X0X0X0X0X0X0X0X0X0X0X0X0X0X0X0X0X0X0X0X0X0X0X0X0X0X0X0X",
"0X0X0X0X0X0X0X0X0X0X0X0X0X0X0X0X0X0X0X0X0X0X0X0X0X0X0X0X0X0X0X0X0X0X0X0X0X0X0X0X0X0X0X0X0X0X0X0X0X0X0X0X0X0X0X0X0X0X0X0X0X0X0X0X",
"0X0X0X0X0X0X0X0X0X0X0X0X0X0X0X0X0X0X0X0X0X0X0X0X0X0X0X0X0X0X0X0X0X0X0X0X0X0X0X0X0X0X0X0X0X0X0X0X0X0X0X0X0X0X0X0X0X0X0X0X0X0X0X0X",
"0X0X0X0X0X0X0X0X0X0X0X0X0X0X0X0X0X0X0X0X0X0X0X0X0X0X0X0X0X0X0X0X0X0X0X0X0X0X0X0X0X0X0X0X0X0X0X0X0X0X0X0X0X0X0X0X0X0X0X0X0X0X0X0X",
"0X0X0X0X0X0X0X0X0X0X0X0X0X0X0X0X0X0X0X0X0X0X0X0X0X0X0X0X0X0X0X0X0X0X0X0X0X0X0X0X0X0X0X0X0X0X0X0X0X0X0X0X0X0X0X0X0X0X0X0X0X0X0X0X",
"0X0X0X0X0X0X0X0X0X0X0X0X0X0X0X0X0X0X0X0X0X0X0X0X0X0X0X0X0X0X0X0X0X0X0X0X0X0X0X0X0X0X0X0X0X0X0X0X0X0X0X0X0X0X0X0X0X0X0X0X0X0X0X0X",
"0X0X0X0X0X0X0X0X0X0X0X0X0X0X0X0X0X0X0X0X0X0X0X0X0X0X0X0X0X0X0X;X7X0X0X0X0X0X0X0X0X0X0X0X0X0X0X0X0X0X0X0X0X0X0X0X0X0X0X0X0X0X0X0X",
"0X0X0X0X0X0X0X0X0X0X0X0X0X0X0X0X0X0X0X0X0X0X0X0X0X0X0X0X0X0X%X_._.1X0X0X0X0X0X0X0X0X0X0X0X0X0X0X0X0X0X0X0X0X0X0X0X0X0X0X0X0X0X0X",
"0X0X0X0X0X0X0X0X0X0X0X0X0X0X0X0X0X0X0X0X0X0X0X0X0X0X0X0X0XU.n.n.F.-X0X0X0X0X0X0X0X0X0X0X0X0X0X0X0X0X0X0X0X0X0X0X0X0X0X0X0X0X0X0X",
"0X0X0X0X0X0X0X0X0X0X0X0X0X0X0X0X0X0X0X0X0X0X0X0X0X0X0X0Xb.>.7 i 1.=X0X0X0X0X0X0X0X0X0X0X0X0X0X0X0X0X0X0X0X0X0X0X0X0X0X0X0X0X0X0X",
"0X0X0X0X0X0X0X0X0X0X0X0X0X0X0X0X0X0X0X0X0X0X0X0X0X0X0X0Xy.i   X 0X0X0X0X0X0X0X0X0X0X0X0X0X0X0X0X0X0X0X0X0X0X0X0X0X0X0X0X0X0X0X0X",
"0X0X0X0X0X0X0X0X0X0X0X0X0X0X0X0X0X0X0X0X0X0X0X0X0X6XF.t.; o . O 0X0X0X0X0X0X0X0X0X0X0X0X0X0X0X0X0X0X0X0X0X0X0X0X0X0X0X0X0X0X0X0X",
"0X0X0X0X0X0X0X0X0X0X0X0X0X0X0X0X0X0X0X0X0X0X0X0X0X0XB.V.o   O n 2.c.0X0X0X0X0X0X0X0X0X0X0X0X0X0X0X0X0X0X0X0X0X0X0X0X0X0X0X0X0X0X",
"0X0X0X0X0X0X0X0X0X0X0X0X0X0X0X0X0X0X0X0X0X0X0X0X0X0X0X0Xo >.p 0X<.l.k.0X0X0X0X0X0X0X0X0X0X0X0X0X0X0X0X0X0X0X0X0X0X0X0X0X0X0X0X0X",
"0X0X0X0X0X0X0X0X0X0X0X0X0X0X0X0X0X0X0X0X0X0X0X0X0X0X0Xh f.h.>.h 1.f.@X'.H.0X0X0X0X0X0X0X0X0X0X0X0X0X0X0X0X0X0X0X0X0X0X0X0X0X0X0X",
"0X0X0X0X0X0X0X0X0X0X0X0X0X0X0X0X0X0X0X0X0X0X0X0X0X0X;.g.P.k.f.f.f.k.,X2XK.H.0X0X0X0X0X0X0X0X0X0X0X0X0X0X0X0X0X0X0X0X0X0X0X0X0X0X",
"0X0X0X0X0X0X0X0X0X0X0X0X0X0X0X0X0X0X0X0X0X0X0X0X0X0Xc.F.<X;XP.K._.@X,X,X*Xg.0X0X0X0X0X0X0X0X0X0X0X0X0X0X0X0X0X0X0X0X0X0X0X0X0X0X",
"0X0X0X0X0X0X0X0X0X0X0X0X0X0X0X0X0X0X0X0X0X0X0X0X0XC g._.,X:X,X,X,X:X:X:XI.g.7.0X0X0X0X0X0X0X0X0X0X0X0X0X0X0X0X0X0X0X0X0X0X0X0X0X",
"0X0X0X0X0X0X0X0X0X0X0X0X0X0X0X0X0X0X0X0X0X0X0X0X% 1 z.H.*X;X;X;X;X;X:X%Xb.,.O 7 3 0X0X0X0X0X0X0X0X0X0X0X0X0X0X0X0X0X0X0X0X0X0X0X",
"0X0X0X0X0X0X0X0X0X0X0X0X0X0X0X0X0X0X0X0X0X0XN % 1 1 h c.H.*X*X*X*X*X&Xm.a.t w -.a.4 0X0X0X0X0X0X0X0X0X0X0X0X0X0X0X0X0X0X0X0X0X0X",
"0X0X0X0X0X0X0X0X0X0X0X0X0X0X0X0X0X0X0X0X0X0XO 1 f f t -.c.H.*X*X&X*XU.m.,.d 7 -.H.v.i 0X0X0X0X0X0X0X0X0X0X0X0X0X0X0X0X0X0X0X0X0X",
"0X0X0X0X0X0X0X0X0X0X0X0X0X0X0X0X0X0X0X0X0XN 1 1 5.n.-.j a.H.G.*X&X*X'.F.n.s.8.v._.`.8.# 0X0X0X0X0X0X0X0X0X0X0X0X0X0X0X0X0X0X0X0X",
"0X0X0X0X0X0X0X0X0X0X0X0X0X0X0X0X0X0X0X0X0XO w w 8.K.D.d.D.G.F.`.}.&X}.{.'.L.L.`.&XP.h o 0X0X0X0X0X0X0X0X0X0X0X0X0X0X0X0X0X0X0X0X",
"0X0X0X0X0X0X0X0X0X0X0X0X0X0X0X0X0X0X0X0Xm 1 7 s L.{.L.K.L.K.S.}.}.}.}.}.}.}.+X}.S.V.w 8 o 0X0X0X0X0X0X0X0X0X0X0X0X0X0X0X0X0X0X0X",
"0X0X0X0X0X0X0X0X0X0X0X0X0X0X0X0X0X0X0X0XO w d M.].+X]./.'.].].[.].].}.].}.[.}.].S.S.f 2 O 0X0X0X0X0X0X0X0X0X0X0X0X0X0X0X0X0X0X0X",
"0X0X0X0X0X0X0X0X0X0X0X0X0X0X0X0X0X0X0X0X8 1 6./.[.[.+X+X+X[.[.[.+X[.[.[.+X].[.[././.5.1 O 0X0X0X0X0X0X0X0X0X0X0X0X0X0X0X0X0X0X0X",
"0X0X0X0X0X0X0X0X0X0X0X0X0X0X0X0X0X0X0Xc 1 1 N.(.+X.X.X.X(..X.X.X+X.X.X.X+X.X.X.X+X(.Z.O 8 o 0X0X0X0X0X0X0X0X0X0X0X0X0X0X0X0X0X0X",
"0X0X0X0X0X0X0X0X0X0X0X0X0X0X0X0X0X0X0Xc 1 t C. X.X.X.X.X.XXXXX.XXX.XXXXX XXX.XXX.X X9.+ < o 0X0X0X0X0X0X0X0X0X0X0X0X0X0X0X0X0X0X",
"0X0X0X0X0X0X0X0X0X0X0X0X0X0X0X0X0X0X0X0Xe.d.j.). XOXXXXXXXXXXXXXXXXXXX XXXXX X XOX XA.5.v 0X0X0X0X0X0X0X0X0X0X0X0X0X0X0X0X0X0X0X",
"0X0X0X0X0X0X0X0X0X0X0X0X0X0X0X0X0X0X0X0XY.p.V.M.).oXOXOXOXOXOXOXOXOXOXOXOXOXOXoX|.Z.u.K - 0X0X0X0X0X0X0X0X0X0X0X0X0X0X0X0X0X0X0X",
"0X0X0X0X0X0X0X0X0X0X0X0X0X0X0X0X0X0X0X0X0X@.+.Q.Q.W.3X5X5X$X$X$X#X^.^.^.p.T.Y.[ _ ) E R & 0X0X0X0X0X0X0X0X0X0X0X0X0X0X0X0X0X0X0X",
"0X0X0X0X0X0X0X0X0X0X0X0X0X0X0X0X0X0X0X0X0X} !.#.&.=.8X8X8X!.*.%.@.%.X. . .) ) I Q Q W A 0X0X0X0X0X0X0X0X0X0X0X0X0X0X0X0X0X0X0X0X",
"0X0X0X0X0X0X0X0X0X0X0X0X0X0X0X0X0X0X0X0X0X0X~.=.*.*.=.=.*.=.#.#.O. .' ' ` ! Q Q ! Q Z 0X0X0X0X0X0X0X0X0X0X0X0X0X0X0X0X0X0X0X0X0X",
"0X0X0X0X0X0X0X0X0X0X0X0X0X0X0X0X0X0X0X0X0X0X0X0X9X+.O.O.#.O.O.+. .' ' ` ! I / Q Q , 0X0X0X0X0X0X0X0X0X0X0X0X0X0X0X0X0X0X0X0X0X0X",
"0X0X0X0X0X0X0X0X0X0X0X0X0X0X0X0X0X0X0X0X0X0X0X0X0X| .. .( ` ( ( ( ~ ! R P I P = 0X0X0X0X0X0X0X0X0X0X0X0X0X0X0X0X0X0X0X0X0X0X0X0X",
"0X0X0X0X0X0X0X0X0X0X0X0X0X0X0X0X0X0X0X0X0X0X0X0X0X0X0X/ / P > : P : : : : = 0X0X0X0X0X0X0X0X0X0X0X0X0X0X0X0X0X0X0X0X0X0X0X0X0X0X",
"0X0X0X0X0X0X0X0X0X0X0X0X0X0X0X0X0X0X0X0X0X0X0X0X0X0X0X/ $.=.#.o. .` ( ! L 0X0X0X0X0X0X0X0X0X0X0X0X0X0X0X0X0X0X0X0X0X0X0X0X0X0X0X",
"0X0X0X0X0X0X0X0X0X0X0X0X0X0X0X0X0X0X0X0X0X0X0X0X0X0X0X0XY ^ { { ( ^ ~ n 0X0X0X0X0X0X0X0X0X0X0X0X0X0X0X0X0X0X0X0X0X0X0X0X0X0X0X0X",
"0X0X0X0X0X0X0X0X0X0X0X0X0X0X0X0X0X0X0X0X0X0X0X0X0X0X0X0XT y a a 6 O 5 @ 0X0X0X0X0X0X0X0X0X0X0X0X0X0X0X0X0X0X0X0X0X0X0X0X0X0X0X0X",
"0X0X0X0X0X0X0X0X0X0X0X0X0X0X0X0X0X0X0X0X0X0X0X0X0X0X0X0XU 0.H D k z 6 @ 0X0X0X0X0X0X0X0X0X0X0X0X0X0X0X0X0X0X0X0X0X0X0X0X0X0X0X0X",
"0X0X0X0X0X0X0X0X0X0X0X0X0X0X0X0X0X0X0X0X0X0X0X0X0X0X0X0X_ i.r.S a D e 2 0X0X0X0X0X0X0X0X0X0X0X0X0X0X0X0X0X0X0X0X0X0X0X0X0X0X0X0X",
"0X0X0X0X0X0X0X0X0X0X0X0X0X0X0X0X0X0X0X0X0X0X0X0X0X0X0X0X^ i.r.H D D y 9 0X0X0X0X0X0X0X0X0X0X0X0X0X0X0X0X0X0X0X0X0X0X0X0X0X0X0X0X",
"0X0X0X0X0X0X0X0X0X0X0X0X0X0X0X0X0X0X0X0X0X0X0X0X0X0X0X0Xb R.w.w.D D y $ 0X0X0X0X0X0X0X0X0X0X0X0X0X0X0X0X0X0X0X0X0X0X0X0X0X0X0X0X",
"0X0X0X0X0X0X0X0X0X0X0X0X0X0X0X0X0X0X0X0X0X0X0X0X0X0X0X0Xb E.r.H D D y $ 0X0X0X0X0X0X0X0X0X0X0X0X0X0X0X0X0X0X0X0X0X0X0X0X0X0X0X0X",
"0X0X0X0X0X0X0X0X0X0X0X0X0X0X0X0X0X0X0X0X0X0X0X0X0X0X0X0XG E.w.H F k y $ 0X0X0X0X0X0X0X0X0X0X0X0X0X0X0X0X0X0X0X0X0X0X0X0X0X0X0X0X",
"0X0X0X0X0X0X0X0X0X0X0X0X0X0X0X0X0X0X0X0X0X0X0X0X0X0X0X0XG E.H 0.F y y $ 0X0X0X0X0X0X0X0X0X0X0X0X0X0X0X0X0X0X0X0X0X0X0X0X0X0X0X0X",
"0X0X0X0X0X0X0X0X0X0X0X0X0X0X0X0X0X0X0X0X0X0X0X0X0X0X0X0Xc i.F 4.S y y $ 0X0X0X0X0X0X0X0X0X0X0X0X0X0X0X0X0X0X0X0X0X0X0X0X0X0X0X0X",
"0X0X0X0X0X0X0X0X0X0X0X0X0X0X0X0X0X0X0X0X0X0X0X0X0X0X0X0X^ J e.F D u 0 o 0X0X0X0X0X0X0X0X0X0X0X0X0X0X0X0X0X0X0X0X0X0X0X0X0X0X0X0X",
"0X0X0X0X0X0X0X0X0X0X0X0X0X0X0X0X0X0X0X0X0X0X0X0X0X0X0X0X0Xc C g r 0 * . 0X0X0X0X0X0X0X0X0X0X0X0X0X0X0X0X0X0X0X0X0X0X0X0X0X0X0X0X",
"0X0X0X0X0X0X0X0X0X0X0X0X0X0X0X0X0X0X0X0X0X0X0X0X0X0X0X0X0Xq q.B r 0 * o 0X0X0X0X0X0X0X0X0X0X0X0X0X0X0X0X0X0X0X0X0X0X0X0X0X0X0X0X",
"0X0X0X0X0X0X0X0X0X0X0X0X0X0X0X0X0X0X0X0X0X0X0X0X0X0X0X0X0X+ J B r 0 + o 0X0X0X0X0X0X0X0X0X0X0X0X0X0X0X0X0X0X0X0X0X0X0X0X0X0X0X0X",
"0X0X0X0X0X0X0X0X0X0X0X0X0X0X0X0X0X0X0X0X0X0X0X0X0X0X0X0X0XM B g r 0 * . 0X0X0X0X0X0X0X0X0X0X0X0X0X0X0X0X0X0X0X0X0X0X0X0X0X0X0X0X",
"0X0X0X0X0X0X0X0X0X0X0X0X0X0X0X0X0X0X0X0X0X0X0X0X0X0X0X0X0X0XB B r 0 * . 0X0X0X0X0X0X0X0X0X0X0X0X0X0X0X0X0X0X0X0X0X0X0X0X0X0X0X0X",
"0X0X0X0X0X0X0X0X0X0X0X0X0X0X0X0X0X0X0X0X0X0X0X0X0X0X0X0X0X0XV V r 0 2 . 0X0X0X0X0X0X0X0X0X0X0X0X0X0X0X0X0X0X0X0X0X0X0X0X0X0X0X0X",
"0X0X0X0X0X0X0X0X0X0X0X0X0X0X0X0X0X0X0X0X0X0X0X0X0X0X0X0X0X0Xz l B e q . 0X0X0X0X0X0X0X0X0X0X0X0X0X0X0X0X0X0X0X0X0X0X0X0X0X0X0X0X",
"0X0X0X0X0X0X0X0X0X0X0X0X0X0X0X0X0X0X0X0X0X0X0X0X0X0X0X0X0X0Xe k u e 9 . 0X0X0X0X0X0X0X0X0X0X0X0X0X0X0X0X0X0X0X0X0X0X0X0X0X0X0X0X",
"0X0X0X0X0X0X0X0X0X0X0X0X0X0X0X0X0X0X0X0X0X0X0X0X0X0X0X0X0X0X. $ 5 9 $ 0X0X0X0X0X0X0X0X0X0X0X0X0X0X0X0X0X0X0X0X0X0X0X0X0X0X0X0X0X",
"0X0X0X0X0X0X0X0X0X0X0X0X0X0X0X0X0X0X0X0X0X0X0X0X0X0X0X0X0X0X0X0X0X. 0X0X0X0X0X0X0X0X0X0X0X0X0X0X0X0X0X0X0X0X0X0X0X0X0X0X0X0X0X0X",
"0X0X0X0X0X0X0X0X0X0X0X0X0X0X0X0X0X0X0X0X0X0X0X0X0X0X0X0X0X0X0X0X0X0X0X0X0X0X0X0X0X0X0X0X0X0X0X0X0X0X0X0X0X0X0X0X0X0X0X0X0X0X0X0X",
"0X0X0X0X0X0X0X0X0X0X0X0X0X0X0X0X0X0X0X0X0X0X0X0X0X0X0X0X0X0X0X0X0X0X0X0X0X0X0X0X0X0X0X0X0X0X0X0X0X0X0X0X0X0X0X0X0X0X0X0X0X0X0X0X",
"0X0X0X0X0X0X0X0X0X0X0X0X0X0X0X0X0X0X0X0X0X0X0X0X0X0X0X0X0X0X0X0X0X0X0X0X0X0X0X0X0X0X0X0X0X0X0X0X0X0X0X0X0X0X0X0X0X0X0X0X0X0X0X0X",
"0X0X0X0X0X0X0X0X0X0X0X0X0X0X0X0X0X0X0X0X0X0X0X0X0X0X0X0X0X0X0X0X0X0X0X0X0X0X0X0X0X0X0X0X0X0X0X0X0X0X0X0X0X0X0X0X0X0X0X0X0X0X0X0X",
"0X0X0X0X0X0X0X0X0X0X0X0X0X0X0X0X0X0X0X0X0X0X0X0X0X0X0X0X0X0X0X0X0X0X0X0X0X0X0X0X0X0X0X0X0X0X0X0X0X0X0X0X0X0X0X0X0X0X0X0X0X0X0X0X"
};
