/* XPM */
static char *result[] = {
/* columns rows colors chars-per-pixel */
"64 64 207 2 ",
"   c #3D1F17",
".  c #38283F",
"X  c #2F3239",
"o  c #35343C",
"O  c #3E292B",
"+  c #441D13",
"@  c #4C1D13",
"#  c #431C1D",
"$  c #482505",
"%  c #5F2F0B",
"&  c #4C2013",
"*  c #4D2C12",
"=  c #482615",
"-  c #532213",
";  c #522C13",
":  c #54251D",
">  c #522D1C",
",  c #5D2D1B",
"<  c #5E2810",
"1  c #553112",
"2  c #5C3413",
"3  c #5A3819",
"4  c #65350B",
"5  c #632512",
"6  c #6B2A10",
"7  c #612B1C",
"8  c #652912",
"9  c #782C14",
"0  c #732911",
"q  c #643915",
"w  c #673719",
"e  c #793917",
"r  c #411921",
"t  c #771739",
"y  c #452221",
"u  c #442A27",
"i  c #4E3F3C",
"p  c #4A2E35",
"a  c #773A24",
"s  c #71263E",
"d  c #6B342B",
"f  c #74431C",
"g  c #76441A",
"h  c #4D423E",
"j  c #6F4524",
"k  c #754423",
"l  c #7B4A22",
"z  c #774228",
"x  c #7E522B",
"c  c #74503A",
"v  c #3D3A47",
"b  c #403D45",
"n  c #4B3754",
"m  c #4E3454",
"M  c #3E414A",
"N  c #3F4859",
"B  c #42434C",
"V  c #47484D",
"C  c #584946",
"Z  c #464A54",
"A  c #4C4B53",
"S  c #4B4D5A",
"D  c #504E5C",
"F  c #54545B",
"G  c #59575D",
"H  c #575459",
"J  c #6E5A53",
"K  c #645C4A",
"L  c #4C4760",
"P  c #544868",
"I  c #5C5B65",
"U  c #595563",
"Y  c #5A5672",
"T  c #635A6C",
"R  c #5F616E",
"E  c #646268",
"W  c #69656A",
"Q  c #6A696D",
"!  c #616066",
"~  c #696877",
"^  c #736D74",
"/  c #706573",
"(  c #677C77",
")  c #727175",
"_  c #7B747B",
"`  c #7C7979",
"'  c #75737E",
"]  c #737067",
"[  c #832F0D",
"{  c #862E13",
"}  c #8A3312",
"|  c #813712",
" . c #973613",
".. c #97340D",
"X. c #BB3F0B",
"o. c #9A4413",
"O. c #AC550E",
"+. c #B85F0F",
"@. c #B05214",
"#. c #BB6B12",
"$. c #814C22",
"%. c #84532A",
"&. c #89542A",
"*. c #875934",
"=. c #925E36",
"-. c #A25D22",
";. c #8F6036",
":. c #946339",
">. c #A26B22",
",. c #B66933",
"<. c #CB5B0F",
"1. c #C44B13",
"2. c #CE4B16",
"3. c #D44217",
"4. c #D05215",
"5. c #CF560E",
"6. c #F54D0A",
"7. c #FE4C0D",
"8. c #FF470F",
"9. c #FD5B0C",
"0. c #F85707",
"q. c #FE4E13",
"w. c #FB4915",
"e. c #E5511C",
"r. c #FF5314",
"t. c #FF5D15",
"y. c #FE5419",
"u. c #FE5D1C",
"i. c #E95212",
"p. c #DA6E0C",
"a. c #D16D1F",
"s. c #DD7611",
"d. c #C46C15",
"f. c #EC6908",
"g. c #FF620C",
"h. c #F76500",
"j. c #E07F0C",
"k. c #FE7C0F",
"l. c #F3770D",
"z. c #FE6415",
"x. c #FF6D14",
"c. c #FF651B",
"v. c #FF6B1E",
"b. c #F46212",
"n. c #FE7413",
"m. c #FF7E14",
"M. c #FE741A",
"N. c #FD7C1A",
"B. c #DB5E3F",
"V. c #CB6421",
"C. c #FF6828",
"Z. c #C6035B",
"A. c #CE305C",
"S. c #FF0B70",
"D. c #875542",
"F. c #A24E5B",
"G. c #81674E",
"H. c #9C6D44",
"J. c #956841",
"K. c #97734A",
"L. c #A67B44",
"P. c #89746D",
"I. c #A87E65",
"U. c #798363",
"Y. c #828036",
"T. c #B8863F",
"R. c #DB880B",
"E. c #FF840C",
"W. c #FD8B0D",
"Q. c #F68E0B",
"!. c #F29307",
"~. c #FE920C",
"^. c #FE980B",
"/. c #FE9800",
"(. c #FD8515",
"). c #FE8B15",
"_. c #FF8B1C",
"`. c #FE9E14",
"'. c #FE951B",
"]. c #FF9D1A",
"[. c #E3850B",
"{. c #EFA504",
"}. c #FEAC05",
"|. c #FFA50D",
" X c #FEAB09",
".X c #FCA307",
"XX c #FEB402",
"oX c #FEB109",
"OX c #FFA212",
"+X c #FEA01A",
"@X c #FF9C24",
"#X c #FA9521",
"$X c #FF9432",
"%X c #FFA124",
"&X c #FEA329",
"*X c #FFAB25",
"=X c #FEB929",
"-X c #BB8743",
";X c #B88E58",
":X c #C4924B",
">X c #FFA16B",
",X c #FFAB71",
"<X c #FFD54E",
"1X c #FFE679",
"2X c #787381",
"3X c #737584",
"4X c None",
/* pixels */
"4X4X4X4X4X4X4X4X4X4X4X4X4X4X4X4X4X4X4X4X4X4X4X4X4X4X4X4X4X4X4X4X4X4X4X4X4X4X4X4X4X4X4X4X4X4X4X4X4X4X4X4X4X4X4X4X4X4X4X4X4X4X4X4X",
"4X4X4X4X4X4X4X4X4X4X4X4X4X4X4X4X4X4X4X4X4X4X4X4X4X4X4X4X4X4X4X4X4X4X4X4X4X4X4X4X4X4X4X4X4X4X4X4X4X4X4X4X4X4X4X4X4X4X4X4X4X4X4X4X",
"4X4X4X4X4X4X4X4X4X4X4X4X4X4X4X4X4X4X4X4X4X4X4X4X4X4X4X4X4X4X4X4X4X4X4X4X4X4X4X4X4X4X4X4X4X4X4X4X4X4X4X4X4X4X4X4X4X4X4X4X4X4X4X4X",
"4X4X4X4X4X4X4X4X4X4X4X4X4X4X4X4X4X4X4X4X4X4X4X4X4X4X4X4X4X4X4X4X4X4X4X4X4X4X4X4X4X4X4X4X4X4X4X4X4X4X4X4X4X4X4X4X4X4X4X4X4X4X4X4X",
"4X4X4X4X4X4X4X4X4X4X4X4X4X4X4X4X4X4X4X4X4X4X4X4X4X4X4X4X4X4X4X4X4X4X4X4X4X4X4X4X4X4X4X4X4X4X4X4X4X4X4X4X4X4X4X4X4X4X4X4X4X4X4X4X",
"4X4X4X4X4X4X4X4X4X4X4X4X4X4X4X4X4X4X4X4X4X4X4X4X4X4X4X4X4X4X4X4X4X4X4X4X4X4X4X4X4X4X4X4X4X4X4X4X4X4X4X4X4X4X4X4X4X4X4X4X4X4X4X4X",
"4X4X4X4X4X4X4X4X4X4X4X4X4X4X4X4X4X4X4X4X4X4X4X4X4X4X4X4X4X4X4X4X4X4X4X4X4X4X4X4X4X4X4X4X4X4X4X4X4X4X4X4X4X4X4X4X4X4X4X4X4X4X4X4X",
"4X4X4X4X4X4X4X4X4X4X4X4X4X4X4X4X4X4X4X4X4X4X4X4X4X4X4X4X4X4X4X4X4X4X4X4X4X4X4X4X4X4X4X4X4X4X4X4X4X4X4X4X4X4X4X4X4X4X4X4X4X4X4X4X",
"4X4X4X4X4X4X4X4X4X4X4X4X4X4X4X4X4X4X4X4X4X4X4X4X4X4X4X4X4X4X4X1X<XE.'.@X4X4X4X4X4X4X4X4X4X4X4X4X4X4X4X4X4X4X4X4X4X4X4X4X4X4X4X4X",
"4X4X4X4X4X4X4X4X4X4X4X4X4X4X4X4X4X4X4X4X4X4X4X4X4X4X4X4X4X4X4X4X4X$X(.).9.4X4X4X4X4X4X4X4X4X4X4X4X4X4X4X4X4X4X4X4X4X4X4X4X4X4X4X",
"4X4X4X4X4X4X4X4X4X4X4X4X4X4X4X4X4X4X4X4X4X4X4X4X4X4X4X4X4X4X4X4X4X4X9.x.6.z.4X4X4X4X4X4X4X4X4X4X4X4X4X4X4X4X4X4X4X4X4X4X4X4X4X4X",
"4X4X4X4X4X4X4X4X4X4X4X4X4X4X4X4X4X4X4X4X4X4X4X4X4X4X4X4X4X4X4X4X4X4X9.0.C.4X4X4X4X4X4X4X4X4X4X4X4X4X4X4X4X4X4X4X4X4X4X4X4X4X4X4X",
"4X4X4X4X4X4X4X4X4X4X4X4X4X4X4X4X4X4X4X4X4X4X4X4X4X4X4X4X4X4X4X4X4X8.7.r.4X4X4X4X4X4X4X4X4X4X4X4X4X4X4X4X4X4X4X4X4X4X4X4X4X4X4X4X",
"4X4X4X4X4X4X4X4X4X4X4X4X4X4X4X4X4X4X4X4X4X4X4X4X4X4X4X4X4X4X,X7.7.8.7.4X4X4X4X4X4X4X4X4X4X4X4X4X4X4X4X4X4X4X4X4X4X4X4X4X4X4X4X4X",
"4X4X4X4X4X4X4X4X4X4X4X4X4X4X4X4X4X4X4X4X4X4X4X4X4X4X4X4X>X8.n.M.7.7.7.4X4X4X4X4X4X4X4X4X4X4X4X4X4X4X4X4X4X4X4X4X4X4X4X4X4X4X4X4X",
"4X4X4X4X4X4X4X4X4X4X4X4X4X4X4X4X4X4X4X4X4X4X4X4X4X4X4X3.r.N.=XM.w.r.q.r.e.4X4X4X4X4X4X4X4X4X4X4X4X4X4X4X4X4X4X4X4X4X4X4X4X4X4X4X",
"4X4X4X4X4X4X4X4X4X4X4X4X4X4X4X4X4X4X4X4X4X4X4X6.@.4X4Xi.w.#X=X@Xy.w.r.q.r.u.4X4X4X4X4X4X4X4X4X4X4X4X4X4X4X4X4X4X4X4X4X4X4X4X4X4X",
"4X4X4X4X4X4X4X4X4X4X4X4X4X4X4X4X4X4X4X4X4X4X4Xn.z.4Xd { q.t.&X*X@Xt.w.r.q.r. .+ 4X4X4X4X4X4X4X4X4X4X4X4X4X4X4X4X4X4X4X4X4X4X4X4X",
"4X4X4X4X4X4X4X4X4X4X4X4X4X4X4X4X4X4X4X4X4X4X4X@.o.& 8 5 } w.C.@X&X@Xv.r.y.y.r.0 & 4X4X4X4X4X4X4X4X4X4X4X4X4X4X4X4X4X4X4X4X4X4X4X",
"4X4X4X4X4X4X4X4X4X4X4X4X4X4X4X4X4X4X4X4X4X4X4X4X} - 6 9 0 2.r.M.&X@X&Xv.y.u.2.8 5 3.4X4X4X4X4X4X4X4X4X4X4X4X4X4X4X4X4X4X4X4X4X4X",
"4X4X4X4X4X4X4X4X4X4X4X4X4X4X4X4X4X4X4X4X4X4X4X4.z. .e } 1.z.u.N.%X@X%X_.z.1.6 ..7.[ 4X4X4X4X4X4X4X4X4X4X4X4X4X4X4X4X4X4X4X4X4X4X",
"4X4X4X4X4X4X4X4X4X4X4X4X4X4X4X4X4X4X4X4X4X4X4Xx.n.x.b.z.z.M.(.].].@X].m.9.} 9 i.z.g.B.4X4X4X4X4X4X4X4X4X4X4X4X4X4X4X4X4X4X4X4X4X",
"4X4X4X4X4X4X4X4X4X4X4X4X4X4X4X4X4X4X4X4X4X4X4Xo.(.'.'.).).].].].].`.'.n.n.1.}  .e 1.6 4X4X4X4X4X4X4X4X4X4X4X4X4X4X4X4X4X4X4X4X4X",
"4X4X4X4X4X4X4X4X4X4X4X4X4X4X4X4X4X4X4X4X4X4X& @ <.).'.+X].].`.].].+X'.m.n.m.l.l.l.| @ 4X4X4X4X4X4X4X4X4X4X4X4X4X4X4X4X4X4X4X4X4X",
"4X4X4X4X4X4X4X4X4X4X4X4X4X4X4X4X4X4X4X4X4X> - 5 p.E.).`.`.`.`.OX`.`.+X`.W.E.E.E.W.l.6 *.4X4X4X4X4X4X4X4X4X4X4X4X4X4X4X4X4X4X4X4X",
"4X4X4X4X4X4X4X4X4X4X4X4X4X4X4X4X4X4X4X4X4X= @ O.~.).|.`.`.`.`.`.OX+X`.OXOX^.^.W.W.~.+.+ 4X4X4X4X4X4X4X4X4X4X4X4X4X4X4X4X4X4X4X4X",
"4X4X4X4X4X4X4X4X4X4X4X4X4X4X4X4X4X4X4X4X4X+ < Q.^.|.|.|.|.|.OX|.|.OXOXOX|.OXOX|.^.^.j.- 4X4X4X4X4X4X4X4X4X4X4X4X4X4X4X4X4X4X4X4X",
"4X4X4X4X4X4X4X4X4X4X4X4X4X4X4X4X4X4X4X4Xk + < !.|. X|.OX X|.|.|.|. X X|. X|.|. X.X^.R.@ K 4X4X4X4X4X4X4X4X4X4X4X4X4X4X4X4X4X4X4X",
"4X4X4X4X4X4X4X4X4X4X4X4X4X4X4X4X4X4X4X4X4X; e [.}.|.}.}. X X}.}. X}.oX{. X X}. X.X}.#.: 4X4X4X4X4X4X4X4X4X4X4X4X4X4X4X4X4X4X4X4X",
"4X4X4X4X4X4X4X4X4X4X4X4X4X4X4X4X4X4X4X4X>.V.0.h./.XXXX}.}.}.}.XX}.}.oXoX}.oXoXXXXX/.h.5.] 4X4X4X4X4X4X4X4X4X4X4X4X4X4X4X4X4X4X4X",
"4X4X4X4X4X4X4X4X4X4X4X4X4X4X4X4X4X4X4X4X4XK.,.a.s.!..XXXXXXXXXXXXXXXXXXXXXXX}.{.R.d.-.K 4X4X4X4X4X4X4X4X4X4X4X4X4X4X4X4X4X4X4X4X",
"4X4X4X4X4X4X4X4X4X4X4X4X4X4X4X4X4X4X4X4X4XY.E / P.P.I.;X;X:X:X:X-XT.T.L.-XK.J J H Z N U.4X4X4X4X4X4X4X4X4X4X4X4X4X4X4X4X4X4X4X4X",
"4X4X4X4X4X4X4X4X4X4X4X4X4X4X4X4X4X4X4X4X4X4XU.^ ) ) 3X3X' _ _ ^ ^ W E I U D Z B M M v 4X4X4X4X4X4X4X4X4X4X4X4X4X4X4X4X4X4X4X4X4X",
"4X4X4X4X4X4X4X4X4X4X4X4X4X4X4X4X4X4X4X4X4X4X4X( ' 2XP.P.` ` ) ) Q E G G F A B b B 3X4X4X4X4X4X4X4X4X4X4X4X4X4X4X4X4X4X4X4X4X4X4X",
"4X4X4X4X4X4X4X4X4X4X4X4X4X4X4X4X4X4X4X4X4X4X4X4XI ~ W W W Q W E I G G F A B B B T 4X4X4X4X4X4X4X4X4X4X4X4X4X4X4X4X4X4X4X4X4X4X4X",
"4X4X4X4X4X4X4X4X4X4X4X4X4X4X4X4X4X4X4X4X4X4X4X4X4Xn P P Z A A Z A V B v M B n m 4X4X4X4X4X4X4X4X4X4X4X4X4X4X4X4X4X4X4X4X4X4X4X4X",
"4X4X4X4X4X4X4X4X4X4X4X4X4X4X4X4X4X4X4X4X4X4X4X4X4X4X4Xm L b v v o o o o X . p 4X4X4X4X4X4X4X4X4X4X4X4X4X4X4X4X4X4X4X4X4X4X4X4X4X",
"4X4X4X4X4X4X4X4X4X4X4X4X4X4X4X4X4X4X4X4X4X4X4X4X4X4X4X4XY 2X3X~ R I F S M . 4X4X4X4X4X4X4X4X4X4X4X4X4X4X4X4X4X4X4X4X4X4X4X4X4X4X",
"4X4X4X4X4X4X4X4X4X4X4X4X4X4X4X4X4X4X4X4X4X4X4X4X4X4X4X4Xv C C C C h h p O 4X4X4X4X4X4X4X4X4X4X4X4X4X4X4X4X4X4X4X4X4X4X4X4X4X4X4X",
"4X4X4X4X4X4X4X4X4X4X4X4X4X4X4X4X4X4X4X4X4X4X4X4X4X4X4X4X4X3 q 4 % $ $ $ y 4X4X4X4X4X4X4X4X4X4X4X4X4X4X4X4X4X4X4X4X4X4X4X4X4X4X4X",
"4X4X4X4X4X4X4X4X4X4X4X4X4X4X4X4X4X4X4X4X4X4X4X4X4X4X4X4X4Xj &.f q q 1 1 u 4X4X4X4X4X4X4X4X4X4X4X4X4X4X4X4X4X4X4X4X4X4X4X4X4X4X4X",
"4X4X4X4X4X4X4X4X4X4X4X4X4X4X4X4X4X4X4X4X4X4X4X4X4X4X4X4X4X*.:.x q f 2 * 4X4X4X4X4X4X4X4X4X4X4X4X4X4X4X4X4X4X4X4X4X4X4X4X4X4X4X4X",
"4X4X4X4X4X4X4X4X4X4X4X4X4X4X4X4X4X4X4X4X4X4X4X4X4X4X4X4X4X=.=.x g q 4 * 4X4X4X4X4X4X4X4X4X4X4X4X4X4X4X4X4X4X4X4X4X4X4X4X4X4X4X4X",
"4X4X4X4X4X4X4X4X4X4X4X4X4X4X4X4X4X4X4X4X4X4X4X4X4X4X4X4X4XJ.*.%.g f f * 4X4X4X4X4X4X4X4X4X4X4X4X4X4X4X4X4X4X4X4X4X4X4X4X4X4X4X4X",
"4X4X4X4X4X4X4X4X4X4X4X4X4X4X4X4X4X4X4X4X4X4X4X4X4X4X4X4X4XH.=.%.g g 3 $ 4X4X4X4X4X4X4X4X4X4X4X4X4X4X4X4X4X4X4X4X4X4X4X4X4X4X4X4X",
"4X4X4X4X4X4X4X4X4X4X4X4X4X4X4X4X4X4X4X4X4X4X4X4X4X4X4X4X4XH.:.l x f 1 * 4X4X4X4X4X4X4X4X4X4X4X4X4X4X4X4X4X4X4X4X4X4X4X4X4X4X4X4X",
"4X4X4X4X4X4X4X4X4X4X4X4X4X4X4X4X4X4X4X4X4X4X4X4X4X4X4X4X4XH.*.l $.f 1 * 4X4X4X4X4X4X4X4X4X4X4X4X4X4X4X4X4X4X4X4X4X4X4X4X4X4X4X4X",
"4X4X4X4X4X4X4X4X4X4X4X4X4X4X4X4X4X4X4X4X4X4X4X4X4X4X4X4X4X*.$.$.g q 3 * 4X4X4X4X4X4X4X4X4X4X4X4X4X4X4X4X4X4X4X4X4X4X4X4X4X4X4X4X",
"4X4X4X4X4X4X4X4X4X4X4X4X4X4X4X4X4X4X4X4X4X4X4X4X4X4X4X4X4XF.=.l k w >   4X4X4X4X4X4X4X4X4X4X4X4X4X4X4X4X4X4X4X4X4X4X4X4X4X4X4X4X",
"4X4X4X4X4X4X4X4X4X4X4X4X4X4X4X4X4X4X4X4X4X4X4X4X4X4X4X4X4X4Xa w , : # s 4X4X4X4X4X4X4X4X4X4X4X4X4X4X4X4X4X4X4X4X4X4X4X4X4X4X4X4X",
"4X4X4X4X4X4X4X4X4X4X4X4X4X4X4X4X4X4X4X4X4X4X4X4X4X4X4X4X4X4Xz a 7 : y 4X4X4X4X4X4X4X4X4X4X4X4X4X4X4X4X4X4X4X4X4X4X4X4X4X4X4X4X4X",
"4X4X4X4X4X4X4X4X4X4X4X4X4X4X4X4X4X4X4X4X4X4X4X4X4X4X4X4X4X4XA.a 7 : # 4X4X4X4X4X4X4X4X4X4X4X4X4X4X4X4X4X4X4X4X4X4X4X4X4X4X4X4X4X",
"4X4X4X4X4X4X4X4X4X4X4X4X4X4X4X4X4X4X4X4X4X4X4X4X4X4X4X4X4X4X4Xa 7 : t 4X4X4X4X4X4X4X4X4X4X4X4X4X4X4X4X4X4X4X4X4X4X4X4X4X4X4X4X4X",
"4X4X4X4X4X4X4X4X4X4X4X4X4X4X4X4X4X4X4X4X4X4X4X4X4X4X4X4X4X4X4Xa , : Z.4X4X4X4X4X4X4X4X4X4X4X4X4X4X4X4X4X4X4X4X4X4X4X4X4X4X4X4X4X",
"4X4X4X4X4X4X4X4X4X4X4X4X4X4X4X4X4X4X4X4X4X4X4X4X4X4X4X4X4X4X4Xa 7 : Z.4X4X4X4X4X4X4X4X4X4X4X4X4X4X4X4X4X4X4X4X4X4X4X4X4X4X4X4X4X",
"4X4X4X4X4X4X4X4X4X4X4X4X4X4X4X4X4X4X4X4X4X4X4X4X4X4X4X4X4X4X4XS.w , 4X4X4X4X4X4X4X4X4X4X4X4X4X4X4X4X4X4X4X4X4X4X4X4X4X4X4X4X4X4X",
"4X4X4X4X4X4X4X4X4X4X4X4X4X4X4X4X4X4X4X4X4X4X4X4X4X4X4X4X4X4X4X4X4X2 4X4X4X4X4X4X4X4X4X4X4X4X4X4X4X4X4X4X4X4X4X4X4X4X4X4X4X4X4X4X",
"4X4X4X4X4X4X4X4X4X4X4X4X4X4X4X4X4X4X4X4X4X4X4X4X4X4X4X4X4X4X4X4X4X4X4X4X4X4X4X4X4X4X4X4X4X4X4X4X4X4X4X4X4X4X4X4X4X4X4X4X4X4X4X4X",
"4X4X4X4X4X4X4X4X4X4X4X4X4X4X4X4X4X4X4X4X4X4X4X4X4X4X4X4X4X4X4X4X4X4X4X4X4X4X4X4X4X4X4X4X4X4X4X4X4X4X4X4X4X4X4X4X4X4X4X4X4X4X4X4X",
"4X4X4X4X4X4X4X4X4X4X4X4X4X4X4X4X4X4X4X4X4X4X4X4X4X4X4X4X4X4X4X4X4X4X4X4X4X4X4X4X4X4X4X4X4X4X4X4X4X4X4X4X4X4X4X4X4X4X4X4X4X4X4X4X",
"4X4X4X4X4X4X4X4X4X4X4X4X4X4X4X4X4X4X4X4X4X4X4X4X4X4X4X4X4X4X4X4X4X4X4X4X4X4X4X4X4X4X4X4X4X4X4X4X4X4X4X4X4X4X4X4X4X4X4X4X4X4X4X4X",
"4X4X4X4X4X4X4X4X4X4X4X4X4X4X4X4X4X4X4X4X4X4X4X4X4X4X4X4X4X4X4X4X4X4X4X4X4X4X4X4X4X4X4X4X4X4X4X4X4X4X4X4X4X4X4X4X4X4X4X4X4X4X4X4X",
"4X4X4X4X4X4X4X4X4X4X4X4X4X4X4X4X4X4X4X4X4X4X4X4X4X4X4X4X4X4X4X4X4X4X4X4X4X4X4X4X4X4X4X4X4X4X4X4X4X4X4X4X4X4X4X4X4X4X4X4X4X4X4X4X",
"4X4X4X4X4X4X4X4X4X4X4X4X4X4X4X4X4X4X4X4X4X4X4X4X4X4X4X4X4X4X4X4X4X4X4X4X4X4X4X4X4X4X4X4X4X4X4X4X4X4X4X4X4X4X4X4X4X4X4X4X4X4X4X4X"
};
